<svg id="sources/DREMIO_CATALOG_V1" viewBox="0 0 24 24" fill="none" xmlns="http://www.w3.org/2000/svg">
<path d="M4 4.5C4 3.83696 4.26339 3.20107 4.73223 2.73223C5.20107 2.26339 5.83696 2 6.5 2H18C18.3283 2 18.6534 2.06466 18.9567 2.1903C19.26 2.31594 19.5356 2.50009 19.7678 2.73223C19.9999 2.96438 20.1841 3.23998 20.3097 3.54329C20.4353 3.84661 20.5 4.1717 20.5 4.5V18.75C20.5 18.9489 20.421 19.1397 20.2803 19.2803C20.1397 19.421 19.9489 19.5 19.75 19.5H5.5C5.5 19.7652 5.60536 20.0196 5.79289 20.2071C5.98043 20.3946 6.23478 20.5 6.5 20.5H19.75C19.9489 20.5 20.1397 20.579 20.2803 20.7197C20.421 20.8603 20.5 21.0511 20.5 21.25C20.5 21.4489 20.421 21.6397 20.2803 21.7803C20.1397 21.921 19.9489 22 19.75 22H6.5C5.83696 22 5.20107 21.7366 4.73223 21.2678C4.26339 20.7989 4 20.163 4 19.5V4.5ZM5.5 18H19V4.5C19 4.23478 18.8946 3.98043 18.7071 3.79289C18.5196 3.60536 18.2652 3.5 18 3.5H6.5C6.23478 3.5 5.98043 3.60536 5.79289 3.79289C5.60536 3.98043 5.5 4.23478 5.5 4.5V18Z" fill="#43B8C9"/>
<path d="M17.7369 5.53913C17.6833 5.46729 17.5341 5.50549 17.405 5.56459L17.0813 5.73919C17.084 5.85559 17.1095 5.97017 17.1577 6.07657C17.0704 6.00291 17.0103 5.90197 16.9867 5.79012L16.2701 6.17751C16.2574 6.32846 16.2892 6.47942 16.3629 6.61127C16.251 6.58308 16.1528 6.3812 16.1501 6.24207L15.4153 6.63946C15.4126 6.83134 15.4599 7.0214 15.5517 7.18963C15.3908 7.08414 15.2853 6.91227 15.2625 6.72131L14.5532 7.10597H14.5514C14.5451 7.33786 14.6087 7.56429 14.7342 7.75798C14.5369 7.63431 14.4096 7.42425 14.3896 7.19327L13.7739 7.52609C12.3589 5.62279 7.95398 7.28148 7.53294 10.6043C7.39381 11.6428 7.69936 12.6913 8.37411 13.4933C8.88881 14.0772 9.44988 14.3218 9.76543 15.2402C10.3829 14.7101 10.2801 14.1108 9.83455 13.5861C10.1583 13.4215 10.3711 13.0996 10.3956 12.7377C10.4202 12.3757 10.2519 12.0274 9.95276 11.8219C9.70178 12.7295 8.83606 13.4024 8.59872 12.8186C8.59508 12.8059 8.59144 12.794 8.58872 12.7813C8.46777 12.1866 9.32439 11.7692 10.7494 11.2063V11.1999C10.7512 11.1672 10.7548 11.1345 10.7548 11.1026C10.7548 10.9853 10.7357 10.8716 10.6948 10.7698C10.6566 10.6707 10.5757 10.5779 10.5011 10.5425L10.4775 10.527C10.4693 10.5215 10.462 10.5143 10.4575 10.507C10.4211 10.4515 10.4265 10.3779 10.4447 10.3342C10.4629 10.2887 10.4866 10.2551 10.512 10.2242C10.562 10.1651 10.6175 10.1187 10.6739 10.076C10.7876 9.99138 10.9076 9.92318 11.0322 9.86316C11.1559 9.80314 11.285 9.75313 11.4178 9.71312C11.5514 9.67492 11.6897 9.644 11.8397 9.64582H11.8433C11.8979 9.64855 11.9406 9.69493 11.9379 9.74949C11.9379 9.77586 11.9252 9.79951 11.907 9.81678C11.7915 9.92682 11.7478 10.1451 11.7197 10.3488C11.7069 10.4324 11.696 10.5179 11.6833 10.6025C11.6833 10.607 11.6815 10.6116 11.6806 10.617C11.6687 10.698 11.6551 10.7798 11.6387 10.8607C12.9373 10.3588 13.7994 9.91045 14.325 9.1584V9.16113C14.546 8.88287 14.3923 8.72373 14.2377 8.87832C14.1986 8.9156 14.1577 8.95016 14.1149 8.98199C14.1149 8.98199 14.1131 8.98199 14.1131 8.98381C14.0713 9.01563 14.0276 9.04382 13.9822 9.0702C13.7075 9.22842 13.382 9.28753 13.0628 9.22843C12.4581 9.12839 12.4299 9.03564 12.5326 8.94561C13.2347 9.18205 14.0076 8.91924 14.4205 8.30542C14.4778 8.22358 14.4387 8.1481 14.3532 8.06353L17.5614 5.83013C17.6596 5.76102 17.7878 5.61188 17.7342 5.53913H17.736H17.7369ZM8.05856 9.63764C8.02127 9.64491 7.98217 9.634 7.95307 9.60854C7.92488 9.58308 7.91033 9.54488 7.91397 9.50669C7.9167 9.42121 7.97853 9.34846 8.0631 9.33209V9.33937C8.09948 9.33118 8.13767 9.34028 8.16586 9.36483C8.19405 9.38938 8.2086 9.42576 8.20497 9.46304C8.20224 9.54852 8.14131 9.62036 8.05856 9.63764ZM8.44231 9.15659C8.38957 9.1675 8.335 9.15295 8.29499 9.11748C8.25498 9.08202 8.23316 9.03018 8.23679 8.97653C8.24134 8.85195 8.32864 8.74646 8.45049 8.71918V8.71645C8.50415 8.70463 8.55962 8.71918 8.60054 8.75555C8.64146 8.79193 8.66328 8.84467 8.65874 8.89923C8.66056 9.02655 8.56871 9.13567 8.44231 9.15659ZM9.15525 8.71645C9.12069 8.72373 9.08432 8.71463 9.05795 8.69099C9.03158 8.66735 9.01703 8.6337 9.01885 8.59823C9.02248 8.51639 9.08068 8.44728 9.16071 8.42818C9.19617 8.42091 9.23255 8.43 9.25983 8.45456C9.28711 8.4782 9.30075 8.51366 9.29711 8.54913C9.29529 8.63097 9.23618 8.70099 9.15525 8.71645ZM9.14525 8.3327C9.09796 8.3427 9.04886 8.32997 9.01339 8.29814C8.97702 8.26632 8.95883 8.21903 8.96337 8.17083C8.97156 8.06171 9.04795 7.96986 9.15343 7.94167C9.20072 7.93167 9.24982 7.9444 9.28529 7.97623C9.32166 8.00806 9.33985 8.05534 9.3353 8.10354C9.32712 8.21266 9.25073 8.30451 9.14525 8.3327ZM11.4223 7.11324C11.3932 7.21873 11.2977 7.29148 11.1886 7.29057C11.1404 7.29057 11.0958 7.26602 11.0676 7.22691C11.0395 7.18781 11.0313 7.13871 11.0449 7.09233C11.074 6.98593 11.1713 6.91318 11.2813 6.915H11.2841C11.3314 6.91682 11.3759 6.94046 11.4023 6.97957C11.4296 7.01867 11.4368 7.06777 11.4223 7.11324ZM11.8133 7.10779C11.7751 7.10051 11.7424 7.07687 11.7242 7.04322C11.706 7.00958 11.7033 6.96865 11.7178 6.93319C11.7542 6.8468 11.8442 6.79678 11.9361 6.80952C11.9761 6.81588 12.0107 6.84134 12.0298 6.87681C12.0488 6.91318 12.0488 6.95501 12.0316 6.9923C11.9925 7.07505 11.9034 7.12234 11.8133 7.10779ZM12.2325 8.58187C12.1171 8.61369 11.9943 8.56095 11.9379 8.45546C11.8815 8.34907 11.9052 8.21812 11.9961 8.13992C12.0761 8.0708 12.1898 8.05716 12.2835 8.10627C12.3771 8.15537 12.4317 8.25631 12.4199 8.3618C12.409 8.46729 12.3344 8.55459 12.2325 8.58278V8.58187Z" fill="#43B8C9"/>
<path d="M11.6732 9.86022C11.6141 9.86749 11.5459 9.88477 11.485 9.90205C11.3631 9.93569 11.2422 9.98116 11.1258 10.0348C11.0094 10.0885 10.8966 10.1503 10.7957 10.2231C10.7457 10.2594 10.6984 10.2994 10.662 10.3404C10.6447 10.3604 10.6302 10.3822 10.6238 10.3986C10.622 10.4013 10.6211 10.4049 10.6211 10.4049C10.7048 10.4413 10.7111 10.464 10.7611 10.5204C10.8093 10.575 10.8475 10.6368 10.8757 10.7014C10.9312 10.8314 10.9557 10.9687 10.9576 11.1024C10.9603 11.2361 10.9457 11.3679 10.9221 11.4962L10.9021 11.5916C10.8957 11.6207 10.8884 11.6635 10.8821 11.6744C10.8703 11.708 10.8721 11.7026 10.8721 11.7035C10.8921 11.7008 10.9448 11.6771 10.9876 11.6544C11.0803 11.6171 11.1576 11.5535 11.2276 11.4843C11.3704 11.3452 11.4495 11.1524 11.4977 10.9542C11.5477 10.755 11.5623 10.5459 11.5823 10.3331C11.5932 10.2258 11.605 10.1185 11.6296 10.0075C11.6378 9.9657 11.6496 9.92296 11.666 9.87931C11.6705 9.86658 11.6678 9.87113 11.6741 9.8584V9.86022H11.6732Z" fill="#43B8C9"/>
</svg>
