<?xml version="1.0" encoding="UTF-8"?>
<!--
    Copyright (C) 2017-2019 Dremio Corporation
    Licensed under the Apache License, Version 2.0 (the "License");
    you may not use this file except in compliance with the License.
    You may obtain a copy of the License at
        http://www.apache.org/licenses/LICENSE-2.0
    Unless required by applicable law or agreed to in writing, software
    distributed under the License is distributed on an "AS IS" BASIS,
    WITHOUT WARRANTIES OR CONDITIONS OF ANY KIND, either express or implied.
    See the License for the specific language governing permissions and
    limitations under the License.
-->
<svg id="sources/RESTCATALOG" width="1000" height="1000" viewBox="-2 -2 38.1 38" fill="none" xmlns="http://www.w3.org/2000/svg">
<path opacity="0.973" fill-rule="evenodd" clip-rule="evenodd" d="M31.1963 8.21571C28.5688 8.21571 25.9415 8.21571 23.3139 8.21571C23.3139 7.8312 23.3139 7.44669 23.3139 7.06219C24.2958 7.1265 25.1288 7.06242 25.8132 6.86993C25.3466 6.47435 24.8341 6.12189 24.2752 5.81254C19.9816 5.68436 15.6878 5.68436 11.3942 5.81254C10.676 6.08358 9.97115 6.37196 9.27943 6.67768C8.61673 6.97646 8.23222 7.48914 8.1259 8.21571C11.0737 8.21571 14.0217 8.21571 16.9696 8.21571C16.9067 10.173 16.9707 12.0955 17.1618 13.9833C17.1618 14.8164 17.1618 15.6496 17.1618 16.4826C17.0978 16.4826 17.0336 16.4826 16.9696 16.4826C13.419 14.9955 9.89444 13.4575 6.39562 11.8685C8.80187 10.6976 11.2371 9.57613 13.7013 8.50409C11.7799 8.408 9.85734 8.37595 7.93365 8.40796C6.30257 8.21705 4.63631 8.15296 2.93506 8.21571C6.15896 3.02875 10.8692 0.401275 17.0657 0.333313C23.2622 0.401275 27.9724 3.02875 31.1963 8.21571Z" fill="#B8E1F3"/>
<path fill-rule="evenodd" clip-rule="evenodd" d="M25.8131 6.86996C20.2689 6.93365 14.7576 6.86957 9.2793 6.6777C9.97103 6.37198 10.6758 6.0836 11.3941 5.81256C15.6877 5.68439 19.9815 5.68439 24.2751 5.81256C24.834 6.12192 25.3465 6.47438 25.8131 6.86996Z" fill="#F5FAFD"/>
<path fill-rule="evenodd" clip-rule="evenodd" d="M9.27925 6.67767C14.7575 6.86954 20.2689 6.93362 25.8131 6.86993C25.1286 7.06241 24.2956 7.12649 23.3138 7.06218C23.3138 7.44669 23.3138 7.83119 23.3138 8.2157C21.199 8.2157 19.0842 8.2157 16.9694 8.2157C14.0216 8.2157 11.0736 8.2157 8.12573 8.2157C8.23205 7.48914 8.61656 6.97645 9.27925 6.67767Z" fill="#EAF7FD"/>
<path fill-rule="evenodd" clip-rule="evenodd" d="M2.93506 8.21573C4.63631 8.15298 6.30257 8.21707 7.93365 8.40798C7.93365 8.53616 7.86963 8.60023 7.7414 8.60023C6.13935 8.47206 4.53711 8.3439 2.93506 8.21573Z" fill="#4B94CB"/>
<path opacity="0.985" fill-rule="evenodd" clip-rule="evenodd" d="M2.93499 8.2157C4.53704 8.34387 6.13928 8.47203 7.74133 8.60021C7.2632 9.55636 6.78256 10.5176 6.29943 11.484C6.66971 13.1672 7.31069 14.7693 8.22197 16.2903C9.31781 17.9739 10.5034 19.5762 11.7787 21.0967C11.7919 22.126 11.8559 23.1513 11.9709 24.1727C11.9423 24.375 11.9742 24.5672 12.067 24.7495C13.741 26.519 15.3751 28.3133 16.9695 30.1326C17.0804 30.3773 17.2085 30.3773 17.354 30.1326C18.6379 27.9484 19.9196 25.7696 21.1991 23.596C22.1527 22.8677 23.0818 22.0987 23.9868 21.2889C24.0829 19.5598 24.1148 17.8295 24.0829 16.0981C25.3004 14.6882 26.5182 13.2784 27.7357 11.8685C27.7941 11.7436 27.8582 11.6154 27.928 11.484C27.5434 10.5227 27.1589 9.56147 26.7744 8.60021C28.3071 8.40839 29.8451 8.34432 31.3885 8.40795C33.6558 12.2186 34.3287 16.32 33.4072 20.7122C31.7805 26.9531 27.9033 31.0866 21.7758 33.1125C13.5287 34.9151 7.08825 32.3197 2.45436 25.3263C-0.00533199 20.5953 -0.325819 15.7249 1.49309 10.715C1.88183 9.80694 2.36246 8.97383 2.93499 8.2157Z" fill="#277ABE"/>
<path fill-rule="evenodd" clip-rule="evenodd" d="M23.3137 8.40796C23.3137 10.2023 23.3137 11.9967 23.3137 13.7911C21.4225 14.7222 19.5 15.6194 17.5461 16.4826C17.4179 16.4826 17.3539 16.5466 17.3539 16.6749C17.2899 16.6749 17.2256 16.6749 17.1616 16.6749C17.1616 16.6108 17.1616 16.5466 17.1616 16.4826C17.1616 15.6496 17.1616 14.8164 17.1616 13.9833C17.1616 12.1249 17.1616 10.2664 17.1616 8.40796C19.2124 8.40796 21.263 8.40796 23.3137 8.40796Z" fill="#68C1EA"/>
<path fill-rule="evenodd" clip-rule="evenodd" d="M23.3137 8.2157C25.9413 8.2157 28.5686 8.2157 31.1961 8.2157C31.3243 8.2157 31.3884 8.27978 31.3884 8.40795C29.845 8.34432 28.3069 8.40839 26.7743 8.60021C27.1588 9.56147 27.5433 10.5227 27.9278 11.484C27.858 11.6154 27.794 11.7436 27.7356 11.8685C26.2383 12.457 24.7643 13.0978 23.3137 13.7911C23.3137 11.9967 23.3137 10.2023 23.3137 8.40795C23.3137 8.34387 23.3137 8.27978 23.3137 8.2157Z" fill="#4E8BC9"/>
<path fill-rule="evenodd" clip-rule="evenodd" d="M16.9694 8.2157C19.0842 8.2157 21.199 8.2157 23.3138 8.2157C23.3138 8.27978 23.3138 8.34387 23.3138 8.40795C21.263 8.40795 19.2124 8.40795 17.1617 8.40795C17.1617 10.2664 17.1617 12.1248 17.1617 13.9833C16.9706 12.0955 16.9065 10.173 16.9694 8.2157Z" fill="#A2D8F1"/>
<path fill-rule="evenodd" clip-rule="evenodd" d="M7.93347 8.40793C9.85716 8.37592 11.7797 8.40797 13.7011 8.50406C11.237 9.5761 8.80169 10.6976 6.39544 11.8685C9.89427 13.4575 13.4188 14.9955 16.9694 16.4826C16.9004 16.8423 16.7081 17.1307 16.3926 17.3477C14.7625 18.4984 13.2245 19.748 11.7785 21.0967C10.5033 19.5761 9.3177 17.9739 8.22185 16.2903C7.31057 14.7693 6.6696 13.1672 6.29932 11.484C6.78245 10.5176 7.26308 9.55634 7.74122 8.60019C7.86945 8.60019 7.93347 8.53611 7.93347 8.40793Z" fill="#90D4F0"/>
<path fill-rule="evenodd" clip-rule="evenodd" d="M27.7356 11.8685C26.518 13.2784 25.3003 14.6883 24.0828 16.0981C22.028 16.2481 19.9772 16.4403 17.9306 16.6749C17.7545 16.6666 17.6263 16.6026 17.5461 16.4826C19.5 15.6194 21.4226 14.7222 23.3137 13.7911C24.7643 13.0978 26.2383 12.457 27.7356 11.8685Z" fill="#266FA8"/>
<path fill-rule="evenodd" clip-rule="evenodd" d="M24.0829 16.0981C24.1148 17.8295 24.0829 19.5598 23.9868 21.2889C23.0818 22.0987 22.1527 22.8677 21.1991 23.596C21.1351 23.4677 21.0708 23.3397 21.0068 23.2115C19.6857 21.0811 18.4681 18.9023 17.354 16.6748C17.354 16.5466 17.418 16.4826 17.5463 16.4826C17.6264 16.6026 17.7547 16.6666 17.9308 16.6748C19.9773 16.4403 22.0281 16.248 24.0829 16.0981Z" fill="#4D8AC8"/>
<path fill-rule="evenodd" clip-rule="evenodd" d="M16.9694 16.4826C17.0334 16.4826 17.0976 16.4826 17.1617 16.4826C17.1617 16.5466 17.1617 16.6108 17.1617 16.6749C17.1617 18.2129 17.1617 19.7509 17.1617 21.2889C17.0976 21.2889 17.0334 21.2889 16.9694 21.2889C15.2395 21.2157 13.5092 21.1517 11.7786 21.0967C13.2245 19.748 14.7625 18.4984 16.3927 17.3477C16.7081 17.1307 16.9004 16.8423 16.9694 16.4826Z" fill="#ABDCF1"/>
<path fill-rule="evenodd" clip-rule="evenodd" d="M17.1616 16.6749C17.2256 16.6749 17.2899 16.6749 17.3539 16.6749C18.468 18.9023 19.6855 21.0811 21.0067 23.2115C19.6525 22.6772 18.3707 22.0364 17.1616 21.289C17.1616 19.7509 17.1616 18.2129 17.1616 16.6749Z" fill="#54A5D7"/>
<path fill-rule="evenodd" clip-rule="evenodd" d="M11.7786 21.0967C13.5092 21.1517 15.2395 21.2157 16.9694 21.2889C16.9694 22.6987 16.9694 24.1087 16.9694 25.5185C15.5515 25.357 14.1416 25.1327 12.7398 24.8456C12.4463 24.6472 12.19 24.4229 11.9708 24.1727C11.8559 23.1513 11.7918 22.126 11.7786 21.0967Z" fill="#B6E0F2"/>
<path fill-rule="evenodd" clip-rule="evenodd" d="M16.9693 21.2889C17.0334 21.2889 17.0976 21.2889 17.1616 21.2889C18.3707 22.0364 19.6524 22.6772 21.0067 23.2115C21.0707 23.3397 21.1349 23.4677 21.1989 23.596C19.8981 24.1501 18.6164 24.7589 17.3539 25.4224C17.1701 26.0749 17.106 26.7478 17.1616 27.4411C16.9734 26.8403 16.9092 26.1995 16.9693 25.5185C16.9693 24.1087 16.9693 22.6987 16.9693 21.2889Z" fill="#58AFDE"/>
<path fill-rule="evenodd" clip-rule="evenodd" d="M21.1991 23.596C19.9196 25.7696 18.6379 27.9484 17.354 30.1326C17.2085 30.3774 17.0804 30.3774 16.9695 30.1326C17.159 29.2733 17.2231 28.376 17.1617 27.4411C17.1062 26.7478 17.1702 26.0749 17.354 25.4224C18.6165 24.7589 19.8983 24.1501 21.1991 23.596Z" fill="#266FA8"/>
<path fill-rule="evenodd" clip-rule="evenodd" d="M11.9709 24.1727C12.19 24.4229 12.4463 24.6472 12.7399 24.8456C14.1416 25.1327 15.5516 25.357 16.9694 25.5185C16.9093 26.1995 16.9735 26.8402 17.1617 27.441C17.223 28.376 17.159 29.2732 16.9694 30.1326C15.3751 28.3133 13.7409 26.519 12.067 24.7495C11.9741 24.5672 11.9422 24.375 11.9709 24.1727Z" fill="#8FD3F0"/>
</svg>
