<svg id="engine-state/degraded" viewBox="0 0 24 24" fill="none" xmlns="http://www.w3.org/2000/svg">
<path d="M10.75 13.4396L15.22 8.96956C15.354 8.8366 15.5333 8.75906 15.7219 8.75242C15.9106 8.74577 16.0948 8.81051 16.2378 8.93372C16.3808 9.05692 16.4721 9.22952 16.4935 9.41708C16.5148 9.60463 16.4647 9.79335 16.353 9.94556L16.28 10.0296L11.28 15.0296C11.1531 15.1566 10.9847 15.2338 10.8056 15.2472C10.6265 15.2606 10.4485 15.2093 10.304 15.1026L10.22 15.0296L7.72004 12.5296C7.58709 12.3956 7.50955 12.2163 7.50291 12.0277C7.49626 11.839 7.561 11.6548 7.6842 11.5118C7.80741 11.3688 7.98001 11.2775 8.16757 11.2561C8.35512 11.2348 8.54384 11.2849 8.69605 11.3966L8.78004 11.4696L10.75 13.4396Z" fill="#FFA940"/>
<path d="M7.59023 3.96277C7.41823 3.54877 6.92423 3.37177 6.54923 3.61577C5.37953 4.3786 4.38165 5.37682 3.61923 6.54677C3.37323 6.92277 3.55023 7.41677 3.96423 7.58677C4.31923 7.73377 4.72423 7.59077 4.93723 7.27177C5.5578 6.34901 6.35146 5.55535 7.27423 4.93477C7.59323 4.72177 7.73723 4.31677 7.59023 3.96277ZM10.3472 3.66077C9.97023 3.73477 9.58223 3.55077 9.43623 3.19577C9.26423 2.78177 9.48823 2.30777 9.92623 2.21577C11.293 1.92581 12.7053 1.92547 14.0722 2.21477C14.5112 2.30677 14.7352 2.78077 14.5632 3.19477C14.4887 3.36551 14.3572 3.50515 14.1913 3.58993C14.0254 3.6747 13.8353 3.69939 13.6532 3.65977C12.5618 3.44373 11.4385 3.44407 10.3472 3.66077ZM20.0372 7.58577C19.6832 7.73277 19.2792 7.58877 19.0652 7.27077C18.4442 6.34746 17.6498 5.55344 16.7262 4.93277C16.4082 4.71977 16.2642 4.31477 16.4112 3.96077C16.5822 3.54677 17.0762 3.36977 17.4512 3.61377C18.6212 4.37577 19.6212 5.37577 20.3842 6.54477C20.6292 6.92077 20.4522 7.41477 20.0372 7.58577ZM20.8052 14.5638C20.4512 14.4168 20.2662 14.0288 20.3402 13.6528C20.5544 12.5602 20.5544 11.4364 20.3402 10.3438C20.2652 9.96777 20.4502 9.57977 20.8052 9.43377C21.2182 9.26177 21.6922 9.48477 21.7852 9.92377C22.0754 11.2919 22.0754 12.7057 21.7852 14.0738C21.6932 14.5118 21.2192 14.7348 20.8052 14.5638ZM16.4122 20.0378C16.2652 19.6838 16.4092 19.2788 16.7272 19.0658C17.6514 18.4446 18.4461 17.6499 19.0672 16.7258C19.2802 16.4078 19.6852 16.2648 20.0392 16.4108C20.4532 16.5828 20.6302 17.0758 20.3862 17.4508C19.623 18.6222 18.6237 19.6215 17.4522 20.3848C17.0772 20.6288 16.5832 20.4518 16.4122 20.0378ZM9.43423 20.8038C9.58123 20.4488 9.96923 20.2638 10.3452 20.3388C11.4376 20.5555 12.5619 20.5555 13.6542 20.3388C14.0302 20.2648 14.4182 20.4498 14.5642 20.8038C14.7362 21.2178 14.5122 21.6928 14.0742 21.7838C12.7061 22.074 11.2923 22.074 9.92423 21.7838C9.48623 21.6918 9.26323 21.2178 9.43423 20.8038ZM3.96323 16.4098C4.31723 16.2628 4.72223 16.4068 4.93523 16.7248C5.5558 17.6487 6.34981 18.4434 7.27323 19.0648C7.59123 19.2778 7.73523 19.6828 7.58823 20.0368C7.41723 20.4508 6.92323 20.6268 6.54823 20.3828C5.37761 19.6196 4.37902 18.6207 3.61623 17.4498C3.37223 17.0748 3.54923 16.5808 3.96323 16.4098ZM3.19823 9.43477C3.55223 9.58177 3.73723 9.96977 3.66323 10.3448C3.44685 11.4362 3.44685 12.5594 3.66323 13.6508C3.73623 14.0268 3.55123 14.4148 3.19723 14.5608C2.78323 14.7328 2.30923 14.5098 2.21723 14.0708C1.92759 12.7039 1.92759 11.2916 2.21723 9.92477C2.31023 9.48677 2.78523 9.26277 3.19823 9.43477Z" fill="#FFA940"/>
</svg>
