<svg id="interface/focus" xmlns="http://www.w3.org/2000/svg" viewBox="0 0 20 20" fill="none">
  <path fill="currentColor" d="M9.998 1.665c1.004 0 1.965.177 2.856.502l-.996.995a7.085 7.085 0 1 0 4.979 4.98l.995-.995a8.335 8.335 0 1 1-7.833-5.482Zm0 3.335a5 5 0 0 1 1.252.158v1.306a3.75 3.75 0 1 0 2.285 2.286h1.306A5 5 0 1 1 10 5m1.667 5a1.667 1.667 0 1 1-1.014-1.534l1.433-1.434-.003-2.657c0-.166.066-.325.184-.442L14.35 1.85a.625.625 0 0 1 1.067.442v2.291h2.291a.625.625 0 0 1 .442 1.067l-2.083 2.083a.625.625 0 0 1-.442.184h-2.658L11.533 9.35c.085.2.132.42.132.65m3.7-3.333.834-.834h-1.408a.625.625 0 0 1-.625-.625V3.8l-.833.833v1.984l.05.05h1.983Z"/>
</svg>
