<svg id="interface/reflection-auto-history" viewBox="0 0 24 24" fill="none" xmlns="http://www.w3.org/2000/svg">
<path fill-rule="evenodd" clip-rule="evenodd" d="M7.28311 4.21298L6.5181 3.96498C6.28548 3.88772 6.07407 3.75729 5.90066 3.58405C5.72725 3.41081 5.5966 3.19953 5.5191 2.96698L5.27011 2.20198C5.2494 2.14291 5.21085 2.09174 5.1598 2.05553C5.10874 2.01933 5.0477 1.99988 4.98511 1.99988C4.92251 1.99988 4.86147 2.01933 4.81041 2.05553C4.75935 2.09174 4.72081 2.14291 4.70011 2.20198L4.45111 2.96598C4.37535 3.19701 4.24721 3.40739 4.07668 3.58069C3.90616 3.75398 3.69788 3.88551 3.46811 3.96498L2.7021 4.21298C2.64304 4.23369 2.59186 4.27223 2.55565 4.32329C2.51945 4.37435 2.5 4.43539 2.5 4.49798C2.5 4.56057 2.51945 4.62162 2.55565 4.67268C2.59186 4.72373 2.64304 4.76228 2.7021 4.78298L3.46811 5.03198C3.7012 5.10958 3.91292 5.2406 4.08637 5.41457C4.25983 5.58854 4.39021 5.80066 4.4671 6.03398L4.71511 6.79798C4.73626 6.8566 4.77498 6.90727 4.82598 6.94308C4.87698 6.97889 4.93779 6.9981 5.0001 6.9981C5.06242 6.9981 5.12323 6.97889 5.17423 6.94308C5.22523 6.90727 5.26395 6.8566 5.2851 6.79798L5.5351 6.03398C5.61223 5.80129 5.74261 5.5898 5.91587 5.41637C6.08913 5.24294 6.30048 5.11234 6.53311 5.03498L7.2991 4.78698C7.35817 4.76628 7.40935 4.72773 7.44555 4.67668C7.48176 4.62562 7.50121 4.56458 7.50121 4.50198C7.50121 4.43939 7.48176 4.37835 7.44555 4.32729C7.40935 4.27623 7.35817 4.23769 7.2991 4.21698L7.28311 4.21298ZM12.5788 2.66661C12.5449 2.36203 12.3273 2.10498 12.0256 2.02499C11.6968 1.93781 11.3505 2.08286 11.1819 2.37836L4.76527 13.6284C4.63286 13.8605 4.63399 14.1456 4.76822 14.3767C4.90245 14.6077 5.1495 14.7499 5.41675 14.7499H10.4167V21.3333H10.4214C10.4553 21.6379 10.6729 21.8949 10.9745 21.9749C11.3034 22.0621 11.6497 21.917 11.8182 21.6215L12.1026 21.123C11.4063 20.0878 11 18.8414 11 17.5C11 16.2828 11.3346 15.1438 11.9167 14.1698V13.2499H6.70795L11.0834 5.57867V10.7499H16.2922L16.058 11.1605C16.5218 11.0555 17.0044 11 17.5 11C17.6243 11 17.7479 11.0035 17.8705 11.0104L18.2349 10.3715C18.3673 10.1394 18.3662 9.85433 18.2319 9.62324C18.0977 9.39215 17.8507 9.24995 17.5834 9.24995H12.5834V2.66661H12.5788ZM6.28311 18.213L5.5181 17.965C5.28548 17.8877 5.07407 17.7573 4.90066 17.584C4.72725 17.4108 4.5966 17.1995 4.5191 16.967L4.27011 16.202C4.2494 16.1429 4.21085 16.0917 4.1598 16.0555C4.10874 16.0193 4.0477 15.9999 3.98511 15.9999C3.92251 15.9999 3.86147 16.0193 3.81041 16.0555C3.75935 16.0917 3.72081 16.1429 3.70011 16.202L3.45111 16.966C3.37535 17.197 3.24721 17.4074 3.07668 17.5807C2.90616 17.754 2.69788 17.8855 2.46811 17.965L1.7021 18.213C1.64304 18.2337 1.59186 18.2722 1.55565 18.3233C1.51945 18.3743 1.5 18.4354 1.5 18.498C1.5 18.5606 1.51945 18.6216 1.55565 18.6727C1.59186 18.7237 1.64304 18.7623 1.7021 18.783L2.46811 19.032C2.7012 19.1096 2.91292 19.2406 3.08637 19.4146C3.25983 19.5885 3.39021 19.8007 3.4671 20.034L3.71511 20.798C3.73626 20.8566 3.77498 20.9073 3.82598 20.9431C3.87698 20.9789 3.93779 20.9981 4.0001 20.9981C4.06242 20.9981 4.12323 20.9789 4.17423 20.9431C4.22523 20.9073 4.26395 20.8566 4.2851 20.798L4.5351 20.034C4.61223 19.8013 4.74261 19.5898 4.91587 19.4164C5.08913 19.2429 5.30048 19.1123 5.53311 19.035L6.2991 18.787C6.35817 18.7663 6.40935 18.7277 6.44555 18.6767C6.48176 18.6256 6.50121 18.5646 6.50121 18.502C6.50121 18.4394 6.48176 18.3783 6.44555 18.3273C6.40935 18.2762 6.35817 18.2377 6.2991 18.217L6.28311 18.213Z" fill="currentColor"/>
<path d="M23 17.5C23 14.4624 20.5376 12 17.5 12C14.4624 12 12 14.4624 12 17.5C12 20.5376 14.4624 23 17.5 23C20.5376 23 23 20.5376 23 17.5ZM17.5 17.5001H19.5C19.7761 17.5001 20 17.7239 20 18.0001C20 18.2762 19.7761 18.5001 19.5 18.5001H17C16.7239 18.5001 16.5 18.2762 16.5 18.0001L16.5 17.9985L16.5 14.9999C16.5 14.7238 16.7239 14.4999 17 14.4999C17.2761 14.4999 17.5 14.7238 17.5 14.9999L17.5 17.5001Z" fill="currentColor"/>
</svg>
