<svg xmlns="http://www.w3.org/2000/svg" fill="none" viewBox="0 0 20 20">
  <path fill="currentColor"
    d="M10.052 17.706c.34.977 1.632 1.427 2.43.59.164-.17.326-.355.436-.52.32-.48.455-1.112.504-1.73.05-.627.016-1.301-.048-1.911a17.983 17.983 0 0 0-.241-1.583l-.01-.052h.883a2.999 2.999 0 0 0 2.952-3.537L16.274 5.2a4.5 4.5 0 0 0-5.612-3.536l-5.6 1.527A2.5 2.5 0 0 0 3.27 5.114l-.353 1.765c-.278 1.389.784 2.558 1.913 3.005.323.127.614.289.84.49 1.707 1.513 2.325 2.723 3.385 4.849.354.71.718 1.676.998 2.483m1.965-5.585v.002l.002.007.007.03a17.322 17.322 0 0 1 .353 2.079c.061.578.09 1.185.046 1.729-.044.555-.16.985-.34 1.254-.059.09-.171.222-.326.383-.199.209-.628.16-.762-.227-.283-.814-.664-1.83-1.048-2.601-1.067-2.14-1.756-3.501-3.616-5.151a3.8 3.8 0 0 0-1.136-.672c-.88-.348-1.447-1.15-1.3-1.88L4.25 5.31a1.5 1.5 0 0 1 1.077-1.153l5.6-1.527a3.5 3.5 0 0 1 4.364 2.75l.684 3.762a2 2 0 0 1-1.968 2.358h-1.505a.5.5 0 0 0-.484.62Z" />
</svg>
