<svg height="254" viewBox="0 0 267 254" width="267" xmlns="http://www.w3.org/2000/svg"><g fill="none"><circle cx="130.5" cy="130.5" fill="#f2f2f2" r="130.5"/><g transform="translate(9 13)"><g fill="#fff"><g stroke="#383c42" stroke-linejoin="round" stroke-width="2"><path d="m101.2 149.1h-8.3l.4-20.5c.8 0 1.6.2 2.4.6 1.6.6 3.3 2.1 3.7 5.5l.1.5v.1c.3 2.2.9 7.2 1.7 13.8z"/><path d="m101.1 149.1h-8.3l.5-20.5c.8 0 1.6.2 2.4.6 1.6.6 3.3 2.1 3.7 5.5l.1.5v.1c.3 2.2.9 7.2 1.6 13.8z"/></g><path d="m85.2 146.8-.1.1-2.2 2.2h-5.6l.9-1 .2-.2 2.3-2.5.7-.7.1-.2.2-.1 2.7 1.8z" stroke="#383c42" stroke-linejoin="round" stroke-width="2"/><path d="m109 115.8-.4-12.2v-.1l.2.1c10.5 4.5 21 .3 21.9-.1v1.8 2.3 7.8" stroke="#383c42" stroke-linejoin="round" stroke-width="2"/><g stroke="#383c42" stroke-linejoin="round" stroke-width="2" transform="translate(77 117)"><path d="m42 32.1h-40.6v-1.2l-.1-5.3v-.1l-.3-11.8v-2.6l-.1-2.5v-1.4-.3-.8l-.1-3 15.2-1.1 3-.2 13-1 .1.2 4.4 13.8.8 2.6z"/><path d="m85.4 2.7-.6 29.4h-40.6l9.5-31.8h.1l2.9.2 10.6.8 1.9.2h.1.6l.6.1 5.3.4z"/><path d="m42 32.1h-40.6v-1.2l-.1-5.3v-.1l-.3-11.8v-2.6l-.1-2.5v-1.4-.3-.8l-.1-3 15.2-1.1 3-.2 13-1 .1.2 4.4 13.8.8 2.6z"/><path d="m85.4 2.7-.6 29.4h-40.6l9.5-31.8h.1l2.9.2 10.6.8 1.9.2h.1.6l.6.1 5.3.4z"/></g><path d="m126.3 131.8-5.6 17.3h-1.4v.1-.1l-4.9-14.7-.9-2.6c2.8 1 5.8 1.3 8.7.8 1.4-.2 2.7-.4 4.1-.8z" stroke="#383c42" stroke-linejoin="round" stroke-width="2"/><g stroke="#383c42" stroke-linejoin="round" stroke-width="2"><path d="m78.6 149.1h-14.8l-4.8-2.5 2.2-4 .4-.7.6-1.2.1-.1.1-.1v-.1l.3-.4.9-1.7.8-1.5c2.3-4.3 4.8-8.8 6.1-11.3.7-1.5 1.8-2.7 3.2-3.6 1.3-.8 2.8-1.4 4.3-1.5l.1 2.6v.9.3 1.7 1.9 3l.4 17.3z"/><path d="m78.6 149.1h-14.8l-4.8-2.5 2.2-4 .4-.7.6-1.2.1-.1.1-.1v-.1l.3-.4.9-1.7.8-1.5c2.3-4.3 4.8-8.8 6.1-11.3.7-1.5 1.8-2.7 3.2-3.6 1.3-.8 2.8-1.4 4.3-1.5l.1 2.6v.9.3 1.7 1.9 3l.4 17.3z"/></g><g stroke="#383c42" stroke-linejoin="round" stroke-width="2"><path d="m161.5 149.1h14.9l4.7-2.5-2.2-4-.4-.7-.6-1.2-.1-.1v-.1l-.1-.1-.2-.4-1-1.7-.8-1.5c-2.3-4.3-4.7-8.8-6.1-11.3-.7-1.5-1.8-2.7-3.2-3.6-1.3-.8-2.8-1.3-4.3-1.4v2.6.8.3 1.8 1.9l-.1 3-.3 17.3z"/><path d="m161.5 149.1h14.9l4.7-2.5-2.2-4-.4-.7-.6-1.2-.1-.1v-.1l-.1-.1-.2-.4-1-1.7-.8-1.5c-2.3-4.3-4.7-8.8-6.1-11.3-.7-1.5-1.8-2.7-3.2-3.6-1.3-.8-2.8-1.3-4.3-1.4v2.6.8.3 1.8 1.9l-.1 3-.3 17.3z"/></g><path d="m151.3 56-.1-1v23.4c-.3 12.9-8.6 24.4-20.7 28.8-3.5 1.3-7.2 1.9-10.9 1.9s-7.4-.7-10.9-2c-11.3-4.3-19.3-14.6-20.6-26.7-.2-1.7-.2-1.2-.4-23.6v-.5c0-17.7 2.4-41.9 31.9-42.5 29.3-.7 31.7 24.5 31.7 42.2z" stroke="#383c42" stroke-linejoin="round" stroke-width="2"/><path d="m156.1 69.2v10.7c0 .5-.2.9-.5 1.3-.4.3-.8.5-1.3.5h-1.4c-.4.1-.9 0-1.2-.3s-.5-.6-.4-1v-10.7c0-1 .7-1.8 1.7-1.8h1.5c.6 0 1.2.4 1.5.9.1.2.1.3.1.4z" stroke="#383c42" stroke-linejoin="round" stroke-width="2"/><path d="m87.7 68.9v10.7c0 .9-.8 1.7-1.8 1.7h-1.5c-.9 0-1.7-.8-1.7-1.7v-10.7c0-.5.2-.9.5-1.2.3-.4.8-.6 1.2-.5h1.5c1-.1 1.8.7 1.8 1.7z" stroke="#383c42" stroke-linejoin="round" stroke-width="2"/><path d="m130.5 107.2c12.1-4.4 20.4-15.9 20.7-28.8v-23.4l.1 1c0-17.7-2.2-42.1-31.5-42.1-30.3.1-32.1 24.7-32.1 42.4v.5c.2 22.4.2 21.9.4 23.6 1.3 12.1 9.3 22.4 20.6 26.7 3.5 1.3 7.2 2 10.9 2s7.4-.6 10.9-1.9z" stroke="#383c42" stroke-linejoin="round" stroke-width="2"/><path d="m97.4 36.8c-5.4 4-9.4 31.8-10.3 30.8 0 0 0 0-.1-.1-1.9-5.6-3-11.5-3.2-17.5.4-15.8 8.6-24.2 10.2-25.8l.3-.3c-.1.3-.2.7-.2 1-.1 1.9.2 3.8.8 5.6.8 2.3 1.9 4.7 2.5 6.3z" stroke="#383c42" stroke-linejoin="round" stroke-width="2"/><path d="m155.4 50c-.3 6-1.4 11.9-3.3 17.6-.8 2.3-4.8-27-10.3-31.2 1.2-3 3.7-8 3.3-11.4-.1-.4-.2-.7-.3-1 0 0-4.5.2.3-.1 2.3-.3 9.8 10.3 10.3 26.1z" stroke="#383c42" stroke-linejoin="round" stroke-width="2"/><path d="m152.1 19.5c0 .6-.1 1.3-.1 1.9l-.1.4c-.1.6-.2 1.2-.4 1.9l-.1.4-.1.4-.1.4-.2.5-.2.7c-.1.3-.2.6-.3.9l-.1.2c-.1.3-.2.6-.4.9-.1.3-.1.5-.3.7-.2.5-.4 1-.6 1.4l-.4.8-.2.5-.6 1c-14.4 26.3-53 10.4-61.1 2.1-2.5-2.6-5.5-6.7-5.9-12 .3-3 1.2-6 2.9-8.6l.2-.3c2.4-3.8 5.4-7.2 9-9.9 0 0 .9 9.8 5.7 9.8 10.9 0 14-11.7 29.4-11.4 7.6.2 15.3 2.6 19.9 7.6l.5.5c2.2 2.6 3.5 5.8 3.6 9.2z" stroke="#383c42" stroke-linejoin="round" stroke-width="2"/><path d="m152.1 19.5c0 .6-.1 1.3-.1 1.9l-.1.4c-.1.6-.2 1.2-.4 1.9l-.1.4-.1.4-.1.4-.2.5-.2.7c-.1.3-.2.6-.3.9l-.1.2c-.1.3-.2.6-.4.9-.1.3-.1.5-.3.7-.2.5-.4 1-.6 1.4l-.4.8-.2.5-.6 1c-14.4 26.3-53 10.4-61.1 2.1-2.5-2.6-5.5-6.7-5.9-12v-1.2-.1-.2-.1-.1-.1-.2-.1-.2-.1-.3-.2-.2-.1-.2c.1-.5.2-.9.3-1.4v-.1-.2-.1c0-.2.1-.4.2-.6v-.1-.2-.1-.2c.1-.5.3-1.1.6-1.6l.1-.2.1-.2v-.1l.1-.2.1-.2.1-.1v-.1l.5-.2.1-.1.1-.2c.2-.4.4-.7.6-1.1 2.4-3.9 5.6-7.4 9.2-10.2 0 0 .6 9.9 5.7 9.8 11.4-.2 14.4-11.4 29.4-11.4 7.9 0 15.9 2.8 20.4 8.1l.1.1.1.2.1.1.1.1.1.2.2.2.1.2.1.1.1.1.1.1v.1l.1.1.1.1.1.1.1.2v.1l.1.1v.1l.2.3.1.1.1.2v.1l.1.2.1.1v.2l.1.1.1.2v.1l.1.2.1.3c.1.2.2.3.2.5l.1.2.1.3v.2.2.1.2.1.2.2.2.1l.1.3v.2.2.2.1.2.2.2.2.1.3.1.2.1.1.2.2c.6.5.6.9.5 1.3z" stroke="#383c42" stroke-linejoin="round" stroke-width="2"/><path d="m119.3 149.1v.1z" stroke="#383c42" stroke-linejoin="round" stroke-width="2"/></g><circle cx="132.5" cy="66" fill="#383c42" opacity=".8" r="3"/><circle cx="107.3" cy="66" fill="#383c42" opacity=".8" r="3"/><path d="m129.7 88c0 3-4.4 5.4-9.8 5.4s-9.8-2.4-9.8-5.4c0 0 1.1 5.2 9.7 5.2 8.5-.1 9.9-5.2 9.9-5.2z" stroke="#383c42" stroke-linejoin="round" stroke-width="2"/><path d="m209.1 204.4c-.5.5-.9.9-1.4 1.3h-13.7l-.6-.4c-1.7-1-3.3-2.2-4.7-3.6v-1.5l-.8-25.5-.1-3.2-.2-6.8-.1-3.1v-.8-.2l.6.3c.7.2 1.4.5 2.1.7 4.1 1.2 8.4 1.4 12.6.7 2.1-.3 4.1-.9 6.1-1.7v1.7 2.2 9.5.6l.1 28.6v.1z" fill="#fff" stroke="#383c42" stroke-linejoin="round" stroke-width="2"/><path d="m209.1 203.2c-1 1-2 1.8-3.2 2.4h-11.7l-.7-.3c-1.8-.8-3.4-1.8-4.9-3v-1.7l-.7-26.2-.1-2.7-.1-7-.1-3.2v-.7-.2l.5.3c.7.2 1.4.5 2.1.7 4.1 1.2 8.4 1.4 12.6.7 2.1-.3 4.1-.9 6.1-1.7v1.7 2.2 9.5.6z" fill="#fff" stroke="#383c42" stroke-linejoin="round" stroke-width="2"/><g fill="#fff" stroke="#383c42" stroke-linejoin="round" stroke-width="2" transform="translate(157 174)"><path d="m82.4 2.3-.2 9.9v.4l-.1 2.6v3.5l-.1 2.8v1.6l-.1 1.7-.1 6.2v.1.6h-.9-.1-.2-38.2l5.9-19.9 3.5-11.8h.1l11.5.9 2.8.2 10.2.7 4.6.4z"/><path d="m40.8 31.7h-32.5c-.3-.1-.3.1-.6 0h-6.4l-.1-7-.1-5v-1.2l-.2-11v-1.6l-.1-3.2h.3l6.6-.5 5.9-.4h.3.1l3.3-.3 1.5-.1 7.6-.6h.2l3.7-.2h.6v.2l2.8 8.8 1.5 4.5.8 2.5 3.6 11.2z"/><path d="m82.4 2.3-.2 9.9v.4l-.1 2.6v3.5l-.1 2.8v1.6l-.1 1.7-.1 6.2v.1.6h-.9-.1-.2-38.2l5.9-19.9 3.5-11.8h.1l11.5.9 2.8.2 10.2.7 4.6.4z"/></g><g fill="#fff" stroke="#383c42" stroke-linejoin="round" stroke-width="2"><path d="m257.6 201.7-.9.5h-.2l-.7.4-2.2 1.2-.3.1-.9.5-2.4 1.3h-11.4v-.9l.1-5.8v-1.8-1.5-2.8l.1-4.9v-1.4-.5l.2-9.7c1.1 0 2.2.3 3.1.8 1.8.8 3.3 2.2 4.2 4l1 2c1.3 2.4 3 5.5 4.6 8.5l1.4 2.3.2.4 3.7 6.7.2.3z"/><path d="m257.6 201.7-.9.5h-.2l-.7.4-2.2 1.2-.3.1-.9.5-2.4 1.3h-11.4v-.9l.1-5.8v-1.8-1.5-2.8l.1-4.9v-1.4-.5l.2-9.7c1.1 0 2.2.3 3.1.8 1.8.8 3.3 2.2 4.2 4l1 2c1.3 2.4 3 5.5 4.6 8.5l1.4 2.3.2.4 3.7 6.7.2.3z"/></g><g fill="#fff" stroke="#383c42" stroke-linejoin="round" stroke-width="2"><path d="m139.2 201.7.9.5h.2l.7.4 2.2 1.2.3.1.9.5 2.4 1.3h11.4v-.9l-.1-5.8v-1.8-1.5-2.8l-.1-4.9v-1.4-.5l-.2-9.7c-1.1 0-2.2.3-3.1.8-1.8.8-3.3 2.2-4.2 4l-1 2c-1.3 2.4-3 5.5-4.6 8.5l-1.4 2.3-.2.4-3.7 6.7-.2.3z"/><path d="m139.2 201.7.9.5h.2l.7.4 2.2 1.2.3.1.9.5 2.4 1.3h11.4v-.9l-.1-5.8v-1.8-1.5-2.8l-.1-4.9v-1.4-.5l-.2-9.7c-1.1 0-2.2.3-3.1.8-1.8.8-3.3 2.2-4.2 4l-1 2c-1.3 2.4-3 5.5-4.6 8.5l-1.4 2.3-.2.4-3.7 6.7-.2.3z"/></g><g fill="#fff" stroke="#383c42" stroke-linejoin="round" stroke-width="2"><path d="m175.8 175.2v.2c0 1-.2 6.4-.4 13.7 0 1.9 0 3.9-.1 5.9v8 2.7h-3.5v-.3-1.9-2-.3-6.2c0-1.9.1-3.8.2-5.8 0-.8 0-1.6.1-2.4v-.6-.3c0-.5 0-.9.1-1.3v-.7l.1-.8c.1-2.5.4-4.9.7-7.3l1.3-.3z"/><path d="m175.8 175.2v.2c0 1-.2 6.4-.4 13.7 0 1.9 0 3.9-.1 5.9v8 2.7h-3.5v-.3-1.9-2-.3-6.2c0-1.9.1-3.8.2-5.8 0-.8 0-1.6.1-2.4v-.6-.3c0-.5 0-.9.1-1.3v-.7l.1-.8c.1-2.5.4-4.9.7-7.3l1.3-.3z"/></g><g fill="#fff" stroke="#383c42" stroke-linejoin="round" stroke-width="2"><path d="m224.4 194.3c-.1 4.3-.5 8.2-.8 11.4h-3.3c.3-3.7.5-7.6.5-11.4.2-9-.3-17.3-.4-19.4v-.6l2.8.4.1.4c1 6.3 1.3 12.7 1.1 19.2z"/><path d="m224.4 194.3c-.1 4.3-.5 8.2-.8 11.4h-3.3c.3-3.7.5-7.6.5-11.4.2-9-.3-17.3-.4-19.4v-.6l2.8.4.1.4c1 6.3 1.3 12.7 1.1 19.2z"/></g><path d="m229.9 109.3-.1-1v23.5c-.3 13-8.6 24.5-20.8 29-3.5 1.2-7.3 1.9-11 1.8-3.7 0-7.4-.6-10.9-2-11.4-4.3-19.4-14.7-20.7-26.8-.2-1.7-.2-1.3-.5-23.7v-.5c0-17.8 2.5-41.9 32-42.8 27.4-.8 32 24.7 32 42.5z" fill="#fff" stroke="#383c42" stroke-linejoin="round" stroke-width="2"/><path d="m232.7 118.5-1.5.1-1.4.1c1-16.2-7-25.7-7-25.7 1-3.1 1.2-6.5.6-9.7-.5-2.5-1.3-4.9-2.4-7.2 16.8 9.8 11.7 42.4 11.7 42.4z" fill="#fff" stroke="#383c42" stroke-linejoin="round" stroke-width="2"/><path d="m222.8 93s8 9.5 7 25.7l2.8-.2s5.2-32.6-11.6-42.4c0 0 4.6 8.6 1.8 16.9z" fill="#fff" stroke="#383c42" stroke-linejoin="round" stroke-width="2"/><path d="m224.2 88.6c-.4 7.6-5.3 14-13.8 14.1-20.4.2-24.1-11.2-36-10.8-8.2.3-8.9 15.9-8.8 22.9v3.4l-2.7-.1c-.3-3.7-.6-8-.6-12.5.1-18.1 5.1-38.5 32.9-38.5 12.2 0 20.2 4.3 24.6 10 2.6 3.3 4.2 7.3 4.4 11.5z" fill="#fff" stroke="#383c42" stroke-linejoin="round" stroke-width="2"/><path d="m224.2 88.6c-.4 7.6-5.3 14-13.8 14.1-20.4.2-24.1-11.2-36-10.8-8.2.3-8.9 15.9-8.8 22.9 0 2 .1 3.4.1 3.4h-.1l-2.7-.1c-.3-3.7-.6-8-.6-12.5-.2-18.5 4.1-40.5 32.9-40.5 21 0 29.6 12.9 29 23.5z" fill="#fff" stroke="#383c42" stroke-linejoin="round" stroke-width="2"/><path d="m234.9 119.8v10.5c0 1-.8 1.7-1.8 1.8h-1.4c-.7-.1-1.2-.4-1.5-1-.1-.1-.1-.2 0-.3v-10.6c0-.9.7-1.7 1.7-1.7h1.4c.7 0 1.3.3 1.6.9z" fill="#fff" stroke="#383c42" stroke-linejoin="round" stroke-width="2"/><path d="m166.2 119.8v10.5c0 1-.8 1.7-1.8 1.8h-1.4c-.5 0-.9-.2-1.2-.6-.4-.3-.5-.7-.5-1.2v-10.5c0-.9.7-1.7 1.7-1.7h1.5c.9 0 1.7.8 1.7 1.7z" fill="#fff" stroke="#383c42" stroke-linejoin="round" stroke-width="2"/><circle cx="211.5" cy="119.3" fill="#383c42" r="3.3"/><path d="m184.2 116c1.8 0 3.3 1.5 3.3 3.3 0 1.9-1.5 3.4-3.3 3.4s-3.3-1.5-3.3-3.4c0-.9.3-1.7.9-2.3.7-.6 1.5-1 2.4-1z" fill="#383c42"/><path d="m162.6 205.7-.1-.2-.3-.5c-.3-.5-.6-1-.9-1.6-.6-1.1-1.1-2.2-1.4-3.4l-.2-.4c-.2-.7-.4-1.4-.5-2.2l-.2-.5c0-.3-.1-.5-.1-.8-.1-.2-.1-.6-.2-1l-.1-.4v-.1-.5-.1c0-.3-.1-.5-.1-.7v-.3-.2-.4-.2c0-.3-.1-.7-.2-1.1 0-.3 0-.7 0-1.1v-.4c0-.6-.1-1.2-.1-1.8 0-.7-.1-1.5-.1-2.3v-.7-2s0 0 0-.1v-.7-.8s0 0 0-.1v-.4-1c0-.4 0-.9.1-1.3v-.6c0-.5 0-.9.1-1.3v-.4-.4c0-.4.1-.7.1-1.1s.1-.7.1-1.1c0-.4.1-.7.1-1.1.1-.6.1-1.1.2-1.7.1-.7.2-1.4.3-2.1l.1-.6v-.5l.2-1.1c.2-1.2.4-2.4.6-3.6l.1-.5v-.5l.2-1.1v-.1-.1l.1-.5v-.2l.1-.5.1-.5.2-.9v-.1l.2-1.3c.1-.5.2-1.1.4-1.6.1-.7.3-1.5.4-2.2l.2-.8.3-1.3v-.1l.1-.6.1-.2.1-.4.1-.8c.2-.5.3-1 .4-1.4l.1-.6.1-.5c.4-1.5.7-2.8 1-4l.1-.2.4-1.6.1-.5.1-.3.1-.2.2-.6v-.3-.1l.1-.2v-.2-.1c.2-.7.3-1.2.5-1.7v-.1l.2-.8v-.1-.1-.1l.1-.2v-.1-.2-.1c.1 1.2.3 2.3.5 3.4 3.2 16.8 18.7 23 20.6 23.7l.1.1.1.5v.1.1l.1.5v.1c.2.5.3 1 .4 1.7l.2.8v.3c.5 2.4 1.1 5.7 1.5 9.4l.1.5c0 .4.1.9.1 1.3.1.5.1.9.2 1.4v1c.1.9.2 1.8.2 2.6v.6 1.1c.2 4.1-.1 8.1-.8 12.1 0 .3-.1.7-.1 1l-.2.6v.2l-.2.6c0 .2-.1.5-.2.8-.1.3-.2.7-.3 1l-.2.6v.1l-.1.3-.1.2c-.4 1.2-.9 2.3-1.5 3.3l-.3.4-.3.5-.2.4-.3.3z" fill="#fff" stroke="#383c42" stroke-linejoin="round" stroke-width="2"/><path d="m238.4 186.4v.5.4.4.1c0 .4 0 .8-.1 1.2v.4.4c0 .3 0 .6-.1.8v.4.2.5.1.4.2c0 .2 0 .5-.1.7 0 .3-.1.7-.1 1l-.1.5c-.1.9-.3 1.7-.5 2.6-.2.7-.4 1.4-.7 2.1v.3l-.2.4-.3.8c-.1.2-.2.4-.3.6-.3.8-.6 1.5-1 2.1-.2.3-.4.6-.6.9s-.6.8-.9 1.2h-22.7l-.2-.3c-.5-.6-1-1.3-1.4-2v-.1c-.3-.5-.6-1-.8-1.5l-.2-.4c-.1-.2-.2-.5-.3-.7v-.1c-.2-.4-.4-.9-.6-1.4l-.1-.5-.1-.3c-.1-.2-.1-.5-.2-.7-.2-.7-.4-1.5-.5-2.2l-.1-.3c-.2-.9-.3-1.8-.4-2.7v-.4c0-.2-.1-.5-.1-.8-.2-1.7-.3-3.6-.3-5.4 0-7 .7-13.9 2.1-20.7v-.2c.3-1.4.5-2.5.7-3.2v-.1-.2-.1l.1-.4v-.1l.5-.2c1.4-.5 2.7-1.2 4-1.9 5.7-3.2 14.8-10.2 16.5-23.1.1-.6.2-1.2.2-1.7l.1.3v.1.1.2.1.1c.2.5.4 1.1.6 2l.1.2v.1l.1.3v.1.2l.2.6.2.7v.1.2l.1.3.1.4.1.3c.2.6.3 1.3.5 1.9l.2.5.1.4.1.4c.1.7.3 1.4.5 2.2l.1.2.2.8v.1l.1.4.1.4v.2l.2 1 .1.7.2.6v.1l.2.8c.1.4.1.9.2 1.3l.1.4.1.5c.2.9.4 1.9.6 2.9.2.6.3 1.2.4 1.8l.1.5c.2.9.3 1.7.5 2.6l.1.5.1.7.1.7v.2l.1.5.1 1 .2 1.2.1.5c0 .3.1.6.1.9l.1.4v.3c0 .4.1.8.1 1.1.1.4.1.7.2 1.1v.5l.1.6.1.5v.3c.1 1.1.2 2.1.3 3.2v.5.5c0 .4.1.8.1 1.2 0 .9.1 1.8.1 2.7.7 2.2.7 4.3.7 6.3z" fill="#fff" stroke="#383c42" stroke-linejoin="round" stroke-width="2"/><path d="m207.1 140.9c0 3-4.4 5.4-9.8 5.4s-9.8-2.4-9.8-5.4c0 0 1.1 5.2 9.7 5.1 8.5 0 9.9-5.1 9.9-5.1z" stroke="#383c42" stroke-linejoin="round" stroke-width="2"/><path d="m73.1 126.1v-.9 20.4c-.3 11.3-7.5 21.3-18.1 25.1-3 1.1-6.3 1.7-9.5 1.7s-6.5-.6-9.5-1.7c-9.9-3.8-16.8-12.8-18-23.3-.1-1.5-.2-1.1-.3-20.6v-.5c0-15.4 2-36.5 27.8-37 25.5-.6 27.6 21.4 27.6 36.8z" fill="#fff" stroke="#383c42" stroke-linejoin="round" stroke-width="2"/><path d="m77.3 137.6v9.3c0 .9-.7 1.6-1.5 1.6h-1.3c-.4 0-.7 0-1-.3-.3-.2-.4-.5-.4-.9v-9.3c0-.8.7-1.5 1.5-1.5h1.3c.6 0 1.1.3 1.4.8z" fill="#fff" stroke="#383c42" stroke-linejoin="round" stroke-width="2"/><rect fill="#fff" height="12.4" rx="1.5" stroke="#383c42" stroke-linejoin="round" stroke-width="2" width="4.4" x="13.3" y="135.8"/><path d="m55 170.7c10.6-3.9 17.7-13.8 18-25.1v-20.4.9c0-15.4-1.9-36.7-27.4-36.7-26.5 0-28 21.5-28 36.9v.5c.2 19.5.2 19.1.3 20.6 1.2 10.5 8.1 19.5 18 23.2 3 1.2 6.3 1.8 9.5 1.8 3.3 0 6.5-.6 9.6-1.7z" fill="#fff" stroke="#383c42" stroke-linejoin="round" stroke-width="2"/><path d="m55.3 177 .2-6.5s-10 4.4-19.9 0l.2 6.5" stroke="#383c42" stroke-linejoin="round" stroke-width="2"/><path d="m67.5 181.7-5 11.1-6.9 6.9-2.4-2.4h.1l-7.6-7.7 9.3-9.3 5.6-5.6z"/><path d="m53.2 197.3-3.9 4-3.7 3.6-3.8-3.8-3.8-3.8 7.6-7.6z"/><path d="m45.5 189.6-7.6 7.7h.1l-2.4 2.4-5.4-5.4-6-13.2 6.4-6.4 5.6 5.6z"/><path d="m30.2 194.3 5.4 5.4 2.4-2.4 7.6-7.6-.1-.1-2.4-2.4-6.9-6.9-5.6-5.6-6.4 6.4z" stroke="#383c42" stroke-linejoin="round" stroke-width="2"/><path d="m62.5 192.8-6.9 6.9-2.4-2.4-7.6-7.6.1-.1 2.7-2.7 6.6-6.6 5.6-5.6 4.5 4.5 2.4 2.5z" stroke="#383c42" stroke-linejoin="round" stroke-width="2"/><path d="m45.7 189.8 7.6 7.6-.1.1-3.9 4-3.7 3.6-3.8-3.8-3.8-3.8-.1-.1 7.6-7.6.1-.1z" stroke="#383c42" stroke-linejoin="round" stroke-width="2"/><path d="m9.2 205.7h-8.9c.6-5.4 1-9.8 1.3-12.3.1-.8.2-1.4.2-1.8.7-6.2 6.7-6.2 6.8-6.2l.2 8.6z" stroke="#383c42" stroke-linejoin="round" stroke-width="2"/><path d="m27.3 25.7h-25.9l-.5-11.7-.3-8.8-.2.2v-.2l7.6-2.4 1.6-.5.5-.2 2.4-.7 1.9-.6 1-.4h.1l.4-.1.4.8.6 1.5.2.5 5 11.2.4.7z"/><path d="m35.3 205.7h-26l-.5-11.7-.4-8.6v-.2l7.6-2.4 1.5-.5.6-.2 2.4-.7 1.9-.6 1-.4.5-.1.3.8.7 1.5.2.5 2.3 5 2.8 6.2.3.7z" stroke="#383c42" stroke-linejoin="round" stroke-width="2"/><path d="m82.6 205.7h8.9c-.5-5.4-1-9.8-1.3-12.3-.1-.8-.1-1.4-.2-1.8-.7-6.2-6.6-6.2-6.7-6.2l-.3 8.6z" stroke="#383c42" stroke-linejoin="round" stroke-width="2"/><path d="m.6 25.7h25.9l.5-11.7.4-8.8.1.2v-.2l-7.6-2.4-1.5-.5-.6-.2-2.4-.7-1.9-.6-1-.4-.5-.1-.3.8-.7 1.5-.2.5-5 11.2-.3.7z"/><path d="m56.6 205.7h26l.5-11.7.4-8.6v-.2l-7.6-2.4-1.5-.5-.6-.2-2.4-.7-1.9-.6-1-.4-.5-.1-.3.8-.7 1.5-.2.5-2.3 5-2.7 6.2-.4.7z" stroke="#383c42" stroke-linejoin="round" stroke-width="2"/><circle cx="57.4" cy="133.5" fill="#383c42" r="3"/><path d="m32.9 130.5c1.6 0 3 1.3 3 3 0 1.6-1.4 3-3 3-1.7 0-3-1.4-3-3 0-1.7 1.3-3 3-3z" fill="#383c42"/><path d="m25.2 91.2.1-3.1s-14.5 5.4-14.5 18.4l2.3-4z" fill="#fff"/><path d="m51.7 153.4c0 2-2.9 3.6-6.4 3.6s-6.4-1.6-6.4-3.6c0 0 .8 3.4 6.3 3.4 5.6 0 6.5-3.4 6.5-3.4z" stroke="#383c42" stroke-linejoin="round" stroke-width="2"/><path d="m29.2 95.2c-.4.1-.7.3-.9.4-2.7 1.6-10.7 8.6-10.2 37.7l-1.3-.1c-2.3-5.3-3.8-10.9-4.5-16.6-1.4-10.8.6-24 15.6-29.6-.4.8-.6 1.8-.6 2.7 0 .7.1 1.4.2 2.1.4 1.2.9 2.4 1.7 3.4z" fill="#fff" stroke="#383c42" stroke-linejoin="round" stroke-width="2"/><path d="m81.2 111.5c-.2 13.2-4.9 24.5-8.4 22.3-.1-1.1-.2-2.2-.2-3.3v-4.8c.1-8.8-.7-19.6-16.6-26.5-12-5.3-30.3 5.6-31.1-7.5v-.1c-.7-13 12.5-19.7 34.7-14.4 16.9 4.1 21.8 20.2 21.6 34.3z" fill="#fff" stroke="#383c42" stroke-linejoin="round" stroke-width="2"/><path d="m34.6 205.7h22" fill="#fff" stroke="#383c42" stroke-linejoin="round" stroke-width="2"/><circle cx="107.5" cy="65.7" r="11.1" stroke="#383c42" stroke-linejoin="round" stroke-width="2"/><circle cx="132.9" cy="65.7" r="11.1" stroke="#383c42" stroke-linejoin="round" stroke-width="2"/><path d="m125.7 74.9s-1 5.6-5.7 5.6c-4.6.1-5.7-5.6-5.7-5.6" stroke="#383c42" stroke-linejoin="round" stroke-width="2"/><circle cx="176.1" cy="134.4" fill="#f2f2f2" opacity=".8" r="5.8"/><circle cx="217.6" cy="134.4" fill="#f2f2f2" opacity=".8" r="5.8"/><path d="m202.9 129c-.4 1.6-1.2 3.2-2.4 4.3-1 .9-2.4 1.3-3.7 1.2-1.4-.2-2.6-.8-3.4-1.9-.8-1.1-1.4-2.3-1.7-3.6" fill="#fff" stroke="#383c42" stroke-linejoin="round" stroke-width="2"/><g fill="#fff" stroke="#383c42" stroke-linejoin="round" stroke-width="2"><path d="m54.7 154.3h-19.1c0-3.9 2.3-7.4 6-8.8 3.4 3.4 7.1 0 7.1 0 3.6 1.4 6 4.9 6 8.8z"/><path d="m41.6 145.5c-3.6 1.4-6 4.9-6 8.8h19.1c0-3.9-2.4-7.4-6-8.9 0 0-3.7 3.5-7.1.1z"/></g><path d="m49.8 142.8c-.2.8-.5 1.7-1 2.4v.2c-.2.2-.3.3-.5.5-.6.8-1.4 1.3-2.4 1.5-.3 0-.5 0-.8 0-1.1.1-2.2-.4-3-1.2-.3-.3-.6-.7-.8-1.1l-.1-.1c-.1-.2-.1-.3-.2-.5-.3-.6-.5-1.1-.6-1.7" fill="#fff" stroke="#383c42" stroke-linejoin="round" stroke-width="2"/></g><path d="m85.2 222.9-.4-14.6c-.5-2.3-5.6-4.4-7.5-4.5-9.9-1-21.3 10.1-21.3 10.1-.3-.1-.6-.3-.9-.5.3-.8.7-1.5 1.2-2.1 0 0 2.3-2.8 6.2-8.1 1-1.3 4.6-6.3 4.2-12 0-.9-.3-3.3-.8-3.6-.1-.9-.4-1.8-.7-1.8-.4 0-.8 1-.9 1.2-1.3 3.4-7.2 6.5-10.5 8.5-3.5 2.2-8.5 5.2-12.3 10.4-1.8 2.6-4.4 6.3-3.7 10.7.1.9.4 1.9.8 2.8.7 2.3 2.1 4.5 3.9 6.1 9.1 8.9 34.8 7.5 42.9 4.8v-1.7l.5-.1s-.4-2.8-.7-5.6z" fill="#f2f2f2"/><path d="m226.1 222.9c-1.8-4.6-4.5-8.7-8-12.2-3.3-3.3-6.7-6.3-8.8-8.4-2-2.2-3.6-4.6-4.9-7.2-.2-.3-1-2.1-1.5-2-.1 0-.3.2-.4.5-.2-.4-1.1-.4-1.5-.3s-.9 1.3-.9 1.9c-.4 2.6-.5 5.3-.2 8s1.8 6.1 4.9 12.7c2.2 4.7 3.9 6.2 2.7 7.4-.1.1-.3.2-.4.3-1.6-2.3-4.3-6.5-8.5-9.6-2.1-1.9-4.7-3.4-7.4-4.3 1.1-6.8 2.3-12.2 2-19.1-.2-2.6-.5-5.1-.9-7.6-2.4-14.4-9.9-31.2-18-40-16.8-18.3-44.8-28.5-69.3-12.3-.9.6-1.7 1.3-2.4 2.1-.5.3-.9.7-1.4 1.1-.1 0-.2.1-.2.2l-1 .3-56.5-47c-4.7-3.9-8.3-5.1-10.2-3.2-.4.4 0-.7-.2-.3-.6.1-1.1.4-1.6.8-2.2 2.3.6 7.6 3.8 11.4l50.6 60.7c-1 2.3-1.4 7.6-.4 11.5.2 1 .7 2.1 1.3 3v.1c-.1.7 0 0-.1.7-.3-.5-1.1 0-1.8 1.4-2.5 3.2-1.3 9.1 0 14 .3 1.4.7 2.8 1.2 4.4.7 2.5 1.9 9.2 1.8 11.7-.1 3.7-.9 16.1 3.6 37.9 3.2 17.3 8.9 31.8 14.1 43.6 2.4 5.3 5.9 10.1 10.3 14 4.5 5.8 9.4 11.3 14.7 16.5 1.9 1.6 3.2 3.7 3.8 6 .7 3.5-.9 6.5-2.3 9-7.7 13.8-10.5 15.8-12.4 22.4-1.4 5.1-1.7 10.8-.8 11 .3.1.7-.8 1.6-2l.3-.4c.1.3.2.4.3.5.3.1.8-.8 1.7-2 .6-1 1.3-1.9 2.1-2.7.3-.3.7-.5 1.1-.8 9.2-5.4 13.9-8 19.8-12.6.6-.4 1.2-.9 1.7-1.5l.6-.4c.4-.4.8-.7 1.2-1 1.8 1.2 22.4 16.2 42.6 15.7 4.3-.2 8.3-1 8.3-1.7 0-.3-.4-.5-1.2-.7 2-.4 3.5-.8 3.5-1.3 0-.7-3.6-.8-7.8-3.5-1.5-1-2.9-2.1-4.2-3.4-11.5-10.7-21-18-29.4-20.7-1.6-.4-3.3-.9-4.8-1.6-3.8-2-4.9-6.2-5.1-7-.8-2.7-.5-5-.1-7.7.2-1.3.5-2.6.9-3.9 2.9-10 14.9-32.8 16.5-35.9 1.1-2.1 2.2-4.1 3.1-5.9 3.8-7.4 8.6-15.7 11.9-25.1l.5-1.6c2.4.4 4.6.8 6.7 1.1 8.3 1.4 13.9 1.9 20.7 1 5.5-.8 11.3-1.7 13.9-6.1 1.7-3 2-6.7.8-9.9z" fill="#f2f2f2"/><path d="m85.8 208.3c-.5-2.3-5.6-4.4-7.5-4.5-9.9-1-21.3 10.1-21.3 10.1-.7-.2-1.2-.7-1.5-1.3-.4-1.2.7-2.5 1.2-3.1 0 0 2.3-2.9 6.2-8.2 1-1.3 4.6-6.3 4.2-12-.1-.9-.3-3.5-.9-3.5-.4 0-.8 1-.9 1.2-1.3 3.4-7.2 6.5-10.5 8.5-3.5 2.1-8.5 5.2-12.3 10.4-1.8 2.6-4.4 6.2-3.7 10.7.5 2.7 1.9 5.2 4.1 7.1 9.1 8.8 35.9 7.5 44 4.7 0 0-1-7.7-1.2-10.6-.2-3.1-.2-6.3.1-9.5z" fill="#31d3db" opacity=".5"/><path d="m85.8 208.3c-2-1.5-4.3-2.4-6.8-2.7-9.9-1-21.4 10.1-21.4 10.1-.6-.2-1.1-.7-1.4-1.3-.4-1.2.7-2.5 1.1-3.1 0 0 2.3-2.9 6.3-8.1 1-1.3 4.5-6.4 4.2-12-.1-1-.3-3.6-.9-3.6-.4 0-.8 1-.9 1.2-1.3 3.4-7.2 6.5-10.5 8.5-3.6 2.2-8.5 5.2-12.3 10.4-1.8 2.6-4.4 6.3-3.8 10.7.6 2.7 2 5.2 4.2 7.1 9.1 8.9 34.8 7.5 42.8 4.8" stroke="#383c42" stroke-linejoin="round" stroke-width="2"/><path d="m224.2 223.4c-1.8-4.6-4.5-8.7-7.9-12.2-3.3-3.3-6.8-6.3-8.9-8.4-1.9-2.2-3.6-4.6-4.9-7.2-.2-.3-1-2.2-1.5-2.1-.4.1-.8 1.3-.9 1.9-.4 2.6-.4 5.3-.1 8 .2 2.7 1.8 6.1 4.8 12.7 2.2 4.7 3.9 8 2.7 9.2-.4.3-.6.4-.9.4-1.4-.4-5.7-11-15.4-14 1.1-6.9 2.2-15.4 1.8-22.3-.2-2.5-.5-5.1-.9-7.6-2.4-14.3-9.9-31.2-18-40-16.8-18.2-44.2-25.9-68.7-9.7-.9.6-1.7 1.3-2.5 2.1l-1.1 1c-.2.1-.3.2-.4.3l-57.4-47.6c-4.7-3.9-8.3-5.1-10.2-3.1-2.3 2.3.5 7.6 3.7 11.4l50.6 60.7c-1.3 3-1.6 11 1 14.5-.1.7 0 0-.1.7-6.2 3.1-2 14.2-.6 19.9.7 2.4 1.9 9.1 1.8 11.7-.1 4-1.1 19.1 5.4 45.9 3 12.1 9.8 31.8 20.2 46.4 5.2 7 10.9 13.6 17.1 19.7 1.9 1.6 3.2 3.7 3.8 6 .7 3.5-.9 6.5-2.3 9-7.7 13.7-10.5 15.8-12.4 22.3-1.4 5.1-1.7 10.8-.8 11.1.3.1.7-.8 1.6-2 1.4-2.3 3.3-4.1 5.5-5.4 9.3-5.5 13.9-8 19.9-12.7 1.5-1.1 2.5-2.5 3.3-3.1 0 0 21.6 16.4 42.7 15.8 4.3-.1 8.3-.9 8.4-1.6 0-.8-3.6-.8-7.8-3.6-1.5-1-3-2.1-4.3-3.3-11.4-10.8-21-18.1-29.3-20.8-1.7-.4-3.3-.9-4.9-1.5-3.8-2-4.9-6.2-5.1-7-.7-2.7-.4-5.1 0-7.8.2-1.3.5-2.6.8-3.8 3-10 15-32.8 16.6-35.9 1.1-2.1 2.2-4.1 3.1-5.9 3.8-7.5 8.5-15.8 11.8-25.2.3-.8.6-1.7.9-2.7 1.6.3 3.1.5 4.5.8 8.3 1.3 13.9 1.9 20.7.9 5.5-.8 11.2-1.6 13.9-6.1 1.7-3 1.9-6.6.7-9.8z" fill="#31d3db" opacity=".5"/><path d="m125.2 305.6s-15.8-20.7-2-48.1c2.3-4.6 9.5-18.3 12-24.2 6.1-14.3 13.1-52.6-2.3-49-15.6 3.7-33.5 4.7-46.2-12.2-.9-1.2-5.5 4.2-.5 19.8 2.6 8 2.9 20.7 3 25.8.5 28.4 9.1 50.6 16.5 67.4 4 8.8 10.9 16 19.5 20.5z" fill="#fff"/><path d="m85.5 168.3c6 18.1 34.7 21.5 47.5 16" stroke="#383c42" stroke-linejoin="round" stroke-width="2"/><path d="m143.7 163.5c-1.1-.9-2.6-1-3.9-.3-1.3.6-2.1 1.9-2.1 3.3s.7 2.7 1.9 3.4c1.8 1 4.1.5 5.2-1.3 1.1-1.7.6-4-1.1-5.1" fill="#383c42"/><path d="m96.8 140.8-59.3-53c-1.5-1.5-3.3-2.5-5.3-3 1.2-.8 3.7.4 5.8 1.9l62 51.7c.9 3.6-3.2 9.8-7.2 10.7 1.9-2.3 4.2-5.4 4.3-8.1" fill="#fff"/><g fill="#21aaad" opacity=".6"><path d="m162.1 138c-.7-.3-1.4-.2-2 .1-.6.4-1 1-1.1 1.7-.2 1.6.7 3.2 2.2 3.8.6.3 1.3.2 2-.1.6-.4 1-1 1-1.7.3-1.6-.6-3.2-2.1-3.8"/><path d="m153.9 132.8c-.5-.2-1.2 0-1.6.3-.5.4-.7 1-.7 1.6 0 1.3 1 2.5 2.3 2.8.6.2 1.2 0 1.6-.3.5-.4.7-1 .7-1.6 0-1.3-1-2.5-2.3-2.8"/></g><g fill="#21aaad" opacity=".6"><path d="m186 186.8c-.8-.8-1.8-1.1-2.9-.9-1 .2-1.9.9-2.4 1.8-1.2 2.1-.8 4.8 1 6.4.8.7 1.8 1 2.9.8 1-.1 1.9-.8 2.3-1.7 1.2-2.1.8-4.8-.9-6.4"/><path d="m182.2 166.8c-.7-.6-1.6-.9-2.6-.7-.9.2-1.7.7-2.1 1.6-1 1.8-.7 4.2.9 5.6.7.7 1.6.9 2.5.8.9-.2 1.7-.8 2.1-1.6 1.1-1.9.7-4.2-.8-5.7"/><path d="m177.2 174.8c-.6-.5-1.3-.7-1.9-.5-.7.1-1.3.5-1.6 1.1-.8 1.4-.5 3.1.7 4.2.5.5 1.1.7 1.8.6s1.3-.6 1.6-1.2c.8-1.4.5-3.1-.6-4.2"/><path d="m186.2 201c-.5-.5-1.3-.7-2-.6s-1.3.6-1.6 1.2c-.8 1.5-.6 3.3.6 4.4.6.5 1.3.7 2 .6s1.3-.5 1.7-1.2c.8-1.4.5-3.3-.7-4.4"/></g><g fill="#21aaad" opacity=".6"><path d="m175.7 245.2c-.2-.7-.7-1.3-1.4-1.6-.8-.3-1.6-.2-2.2.2-1.6.8-2.3 2.6-1.9 4.3.2.7.7 1.3 1.4 1.6s1.5.2 2.2-.2c1.5-.8 2.3-2.6 1.9-4.3"/><path d="m170.3 254c-.2-.5-.5-.9-1-1.1s-1-.2-1.5.1c-1 .6-1.6 1.8-1.3 2.9.2.5.5.9 1 1.1s1 .2 1.5-.1c1.1-.5 1.6-1.8 1.3-3"/></g><path d="m40.3 87.1c-.3 2.9-2.2 5.4-2.9 6.6 1.3-.3 4.1-3.3 4.6-5.2zm11.1 20.6c2.4-.2 5.3-4 5.8-6.8l-2-1.6c-.4 3.1-1.7 6-3.8 8.4zm14.3 15c1.8 0 6.3-4.4 7.5-8.6l-2.5-2.1c-.4 3.5-3.2 8.9-5 10.7zm14.3 14.6c3-.4 8-5.4 9.2-10.1l-2.9-2.3c-.3 4.1-3.4 9.5-6.3 12.4z" fill="#21aaad"/><path d="m167 222c.7-1.4 4.4-8.6 12.8-11.2 4.3-1.3 9-1.1 13.3.4 9.7 3 14 13.6 15.4 14 .3 0 .5 0 .9-.4 1.2-1.2-.5-4.5-2.7-9.2-3-6.6-4.6-10-4.9-12.7-.2-2.6-.2-5.3.2-8 0-.5.7-1.8.9-1.8.3-.1 1.3 1.7 1.5 2 1.3 2.6 3 5 4.9 7.3 2.1 2 5.6 5 8.9 8.3 3.4 3.5 6.1 7.6 7.9 12.2 1.2 3.2 1 6.8-.7 9.9-2.7 4.4-8.4 5.3-13.9 6.1-6.8.9-12.4.4-20.7-1-6.2-1-14.3-2.5-23.8-4.8" stroke="#383c42" stroke-linejoin="round" stroke-width="2"/><path d="m49.4 251.6h182.9v120.2h-182.9z" fill="#fff"/><g stroke="#383c42" stroke-linejoin="round" stroke-width="2"><path d="m190.4 206.2c.6-5.6.8-11.2.3-16.8-.3-3.8-.7-6.6-.9-7.6-2.4-14.3-9.8-31.2-18-40-16.8-18.2-44.2-25.9-68.7-9.7-.9.6-1.7 1.3-2.4 2.1l-1.2 1c-.1.1-.3.2-.4.3l-57.3-47.6c-4.8-3.9-8.3-5.1-10.3-3.2-2.2 2.3.6 7.7 3.8 11.4l50.6 60.7c-1.3 3-1.6 11.1.9 14.6-.1.7 0 0-.1.7-6.1 3.1-2 14.1-.5 19.8.7 2.5 1.9 9.2 1.8 11.8-.1 4-1.1 19 5.4 45.8.2.7.3 1.4.5 2.1h82.4c1.8-3.8 3.5-7.7 5.2-11.8"/><path d="m127.5 78.7h3.4"/><path d="m105.4 77-7-1.9"/><path d="m153 77.8 5.9-1.4"/></g></g></svg>
