<svg xmlns="http://www.w3.org/2000/svg" width="216" height="41" fill="none">
  <g clip-path="url(#a)">
    <path fill="#2F2F2F" stroke="#939DA7" d="M1 .5h214v40H1V.5Z"/>
    <path fill="#fff" d="M46.312 25.082v-1.794c.173.157.366.291.573.4.226.12.462.22.706.3.244.08.492.142.745.187.227.041.456.063.687.065a2.928 2.928 0 0 0 1.634-.365 1.2 1.2 0 0 0 .537-1.062 1.167 1.167 0 0 0-.178-.65 1.939 1.939 0 0 0-.5-.5 5.415 5.415 0 0 0-.757-.434c-.29-.14-.6-.285-.932-.436-.355-.19-.687-.383-.994-.578-.292-.183-.56-.401-.8-.648a2.725 2.725 0 0 1-.533-.8 2.601 2.601 0 0 1-.194-1.047 2.417 2.417 0 0 1 .333-1.285c.22-.363.52-.67.877-.9.38-.245.8-.423 1.239-.528.464-.115.94-.173 1.418-.172a5.691 5.691 0 0 1 2.4.374v1.72a3.817 3.817 0 0 0-2.295-.644c-.259 0-.517.025-.771.074-.24.043-.472.125-.687.24a1.5 1.5 0 0 0-.494.434 1.06 1.06 0 0 0-.19.637c-.004.211.046.421.146.608.11.183.255.342.428.468.216.159.446.297.688.414.27.134.584.28.939.436.365.19.71.39 1.034.6.31.2.598.435.856.7.241.247.439.533.585.846.148.332.221.694.215 1.058.015.47-.096.935-.322 1.348-.212.363-.51.67-.866.892-.385.24-.81.41-1.254.5a6.957 6.957 0 0 1-1.5.155c-.176 0-.392-.014-.647-.04a9.647 9.647 0 0 1-.786-.117 7.75 7.75 0 0 1-.76-.187 2.373 2.373 0 0 1-.58-.27ZM55.609 16.426a1.02 1.02 0 0 1-.939-.583.89.89 0 0 1-.074-.377.917.917 0 0 1 .3-.7c.192-.183.448-.283.713-.278.27-.007.533.093.732.278a.914.914 0 0 1 .3.7.9.9 0 0 1-.3.678c-.198.186-.46.287-.732.282Zm.841 9.074h-1.7V18h1.7v7.5ZM65.479 24.9c0 2.754-1.382 4.131-4.146 4.131a6.165 6.165 0 0 1-2.551-.49v-1.555a4.712 4.712 0 0 0 2.332.7 2.34 2.34 0 0 0 2.668-2.628v-.818h-.029a2.938 2.938 0 0 1-4.733.436 4.046 4.046 0 0 1-.837-2.684 4.738 4.738 0 0 1 .9-3.04 2.99 2.99 0 0 1 2.471-1.128 2.38 2.38 0 0 1 2.2 1.216h.029V18h1.7l-.004 6.9ZM63.8 22.064v-.973a1.91 1.91 0 0 0-.523-1.352 1.71 1.71 0 0 0-1.3-.559 1.79 1.79 0 0 0-1.51.714 3.224 3.224 0 0 0-.545 2 2.78 2.78 0 0 0 .523 1.77 1.674 1.674 0 0 0 1.385.661 1.8 1.8 0 0 0 1.426-.632 2.4 2.4 0 0 0 .544-1.629ZM74.353 25.5h-1.7v-4.227c0-1.4-.494-2.1-1.483-2.1a1.614 1.614 0 0 0-1.279.582c-.344.41-.524.933-.505 1.469V25.5h-1.7V18h1.7v1.245h.029a2.67 2.67 0 0 1 2.428-1.421 2.257 2.257 0 0 1 1.863.795c.472.67.7 1.482.644 2.3l.003 4.58ZM81.392 16.426a1.017 1.017 0 0 1-.939-.583.89.89 0 0 1-.074-.377.914.914 0 0 1 .3-.7 1 1 0 0 1 .713-.278c.27-.007.533.093.731.278a.916.916 0 0 1 .3.7.9.9 0 0 1-.3.678c-.197.186-.46.287-.73.282Zm.84 9.074h-1.7V18h1.7v7.5ZM91.114 25.5h-1.7v-4.227c0-1.4-.494-2.1-1.483-2.1a1.62 1.62 0 0 0-1.28.582c-.342.41-.52.934-.5 1.469V25.5h-1.7V18h1.7v1.245h.03a2.668 2.668 0 0 1 2.427-1.421 2.257 2.257 0 0 1 1.864.795c.472.67.699 1.482.643 2.3v4.58ZM107.365 18l-2.208 7.5h-1.776l-1.36-5.083a3.263 3.263 0 0 1-.1-.659h-.029a3.074 3.074 0 0 1-.132.644l-1.477 5.1h-1.741l-2.2-7.5H98.1l1.36 5.405c.05.212.08.428.087.645h.053c.017-.223.056-.444.117-.659L101.225 18h1.593l1.345 5.428c.05.212.081.427.095.644h.052a3.27 3.27 0 0 1 .109-.644l1.33-5.428h1.616ZM109.477 16.426a1.016 1.016 0 0 1-.939-.583.89.89 0 0 1-.074-.377.915.915 0 0 1 .3-.7 1 1 0 0 1 .713-.278c.271-.007.533.093.731.278a.909.909 0 0 1 .3.7.896.896 0 0 1-.3.678c-.197.186-.46.287-.731.282Zm.84 9.074h-1.7V18h1.7v7.5ZM116.479 25.42a2.941 2.941 0 0 1-1.307.248c-1.453 0-2.18-.698-2.179-2.094v-4.24h-1.25V18h1.25v-1.736l1.7-.483v2.22h1.79v1.332h-1.79v3.75c-.03.336.055.672.242.952a.999.999 0 0 0 .8.285c.27.007.533-.081.745-.248l-.001 1.348ZM124.594 25.5h-1.7v-4.1c0-1.484-.494-2.226-1.483-2.226a1.55 1.55 0 0 0-1.258.644 2.572 2.572 0 0 0-.511 1.65V25.5h-1.7V14.4h1.7v4.85h.029a2.683 2.683 0 0 1 2.428-1.422c1.661 0 2.492 1.019 2.492 3.055l.003 4.617ZM142.219 25.5h-1.726v-6.8c0-.557.033-1.238.1-2.043h-.03a7.059 7.059 0 0 1-.285.988l-3.126 7.855h-1.2l-3.136-7.793a7.284 7.284 0 0 1-.277-1.047h-.029c.039.42.059 1.106.058 2.058V25.5h-1.608V15h2.449l2.756 7c.161.391.297.792.409 1.2h.036c.181-.551.327-.962.439-1.23l2.808-6.97h2.362v10.5ZM145.464 16.426a1.018 1.018 0 0 1-.939-.583.89.89 0 0 1-.074-.377.914.914 0 0 1 .3-.7c.192-.183.448-.283.713-.278.271-.007.533.093.731.278a.922.922 0 0 1 .227.317c.051.12.076.251.073.383a.896.896 0 0 1-.3.678c-.197.186-.46.287-.731.282Zm.841 9.074h-1.7V18h1.7v7.5ZM153.878 25.156c-.65.359-1.384.538-2.127.52a3.598 3.598 0 0 1-2.69-1.044 3.695 3.695 0 0 1-1.024-2.706 4.078 4.078 0 0 1 1.1-2.978 3.923 3.923 0 0 1 2.942-1.124 4.282 4.282 0 0 1 1.806.36v1.582a2.73 2.73 0 0 0-1.667-.586 2.308 2.308 0 0 0-1.762.728 2.67 2.67 0 0 0-.687 1.908 2.549 2.549 0 0 0 .647 1.838 2.283 2.283 0 0 0 1.736.674 2.707 2.707 0 0 0 1.725-.652l.001 1.48ZM159.9 19.62a1.4 1.4 0 0 0-.884-.243 1.516 1.516 0 0 0-1.258.682 3.046 3.046 0 0 0-.5 1.852v3.59h-1.7V18h1.7v1.544h.029c.133-.475.398-.902.764-1.233a1.722 1.722 0 0 1 1.151-.444c.242-.013.482.035.7.14l-.002 1.611ZM164.288 25.676a3.71 3.71 0 0 1-2.767-1.051 3.803 3.803 0 0 1-1.035-2.787 3.708 3.708 0 0 1 1.06-2.933 3.698 3.698 0 0 1 2.925-1.081 3.582 3.582 0 0 1 2.733 1.033c.69.789 1.042 1.817.98 2.864a3.943 3.943 0 0 1-1.056 2.875 3.81 3.81 0 0 1-2.84 1.08Zm.08-6.5a1.935 1.935 0 0 0-1.571.7 2.918 2.918 0 0 0-.578 1.919c-.038.669.17 1.33.585 1.856a1.966 1.966 0 0 0 1.564.678 1.863 1.863 0 0 0 1.539-.666 2.947 2.947 0 0 0 .537-1.9 2.991 2.991 0 0 0-.537-1.911 1.843 1.843 0 0 0-1.539-.672v-.004ZM169.44 25.266V23.69a3.38 3.38 0 0 0 2.1.725c1.023 0 1.535-.303 1.535-.908a.716.716 0 0 0-.132-.436 1.27 1.27 0 0 0-.354-.318 2.873 2.873 0 0 0-.526-.25c-.2-.072-.428-.155-.677-.248a7.044 7.044 0 0 1-.829-.39 2.517 2.517 0 0 1-.615-.464 1.752 1.752 0 0 1-.369-.59 2.187 2.187 0 0 1-.124-.77 1.774 1.774 0 0 1 .256-.954c.174-.282.409-.52.687-.7.301-.194.632-.338.979-.425a4.49 4.49 0 0 1 1.129-.14 5.163 5.163 0 0 1 1.856.316v1.487a3.13 3.13 0 0 0-1.812-.542 2.326 2.326 0 0 0-.582.066 1.477 1.477 0 0 0-.442.183.892.892 0 0 0-.285.282.674.674 0 0 0-.1.363.783.783 0 0 0 .1.41.935.935 0 0 0 .3.3c.152.094.314.172.482.234.188.07.404.146.648.23.295.119.584.252.866.4.239.123.459.28.654.465.178.17.32.373.416.6.104.257.154.533.147.81a1.85 1.85 0 0 1-.263 1 2.218 2.218 0 0 1-.7.7 3.28 3.28 0 0 1-1.013.413 5.193 5.193 0 0 1-1.209.136 5.097 5.097 0 0 1-2.123-.41ZM179.683 25.676a3.71 3.71 0 0 1-2.768-1.051 3.803 3.803 0 0 1-1.034-2.787 3.707 3.707 0 0 1 1.06-2.933 3.694 3.694 0 0 1 2.924-1.081 3.583 3.583 0 0 1 2.734 1.033c.69.789 1.041 1.817.979 2.864a3.926 3.926 0 0 1-1.056 2.875 3.79 3.79 0 0 1-2.839 1.08Zm.08-6.5a1.935 1.935 0 0 0-1.572.7 2.919 2.919 0 0 0-.578 1.919c-.038.669.17 1.329.585 1.856a1.96 1.96 0 0 0 1.565.678 1.866 1.866 0 0 0 1.539-.666 2.953 2.953 0 0 0 .537-1.9 2.998 2.998 0 0 0-.537-1.911 1.844 1.844 0 0 0-1.539-.672v-.004ZM189.287 15.78a1.524 1.524 0 0 0-.782-.2c-.824 0-1.235.467-1.235 1.4V18h1.74v1.333h-1.733V25.5h-1.7v-6.167H184.3V18h1.279v-1.216a2.37 2.37 0 0 1 .775-1.871 2.816 2.816 0 0 1 1.937-.684c.337-.013.673.034.994.138l.002 1.414ZM194.44 25.42a2.941 2.941 0 0 1-1.307.248c-1.452 0-2.179-.698-2.179-2.094v-4.24H189.7V18h1.25v-1.736l1.7-.483v2.22h1.79v1.332h-1.79v3.75c-.031.336.055.672.242.952a.999.999 0 0 0 .8.285c.27.006.533-.081.745-.248l.003 1.348Z"/>
    <path fill="#F25022" d="M22.5 11h-9v9h9v-9Z"/>
    <path fill="#00A4EF" d="M22.5 21h-9v9h9v-9Z"/>
    <path fill="#7FBA00" d="M32.5 11h-9v9h9v-9Z"/>
    <path fill="#FFB900" d="M32.5 21h-9v9h9v-9Z"/>
  </g>
  <defs>
    <clipPath id="a">
      <path fill="#fff" d="M.5 0h215v41H.5z"/>
    </clipPath>
  </defs>
</svg>
