<!--

    Copyright (C) 2017-2019 Dremio Corporation

    Licensed under the Apache License, Version 2.0 (the "License");
    you may not use this file except in compliance with the License.
    You may obtain a copy of the License at

        http://www.apache.org/licenses/LICENSE-2.0

    Unless required by applicable law or agreed to in writing, software
    distributed under the License is distributed on an "AS IS" BASIS,
    WITHOUT WARRANTIES OR CONDITIONS OF ANY KIND, either express or implied.
    See the License for the specific language governing permissions and
    limitations under the License.

-->
<svg xmlns="http://www.w3.org/2000/svg" width="121" height="39" fill="none">
  <path fill="#fff" d="M104.023 11.355c0 .701-.243 1.241-.729 1.646-.458.404-1.025.593-1.672.593s-1.214-.189-1.672-.593c-.486-.405-.729-.944-.729-1.646 0-.701.243-1.24.728-1.645.459-.405 1.026-.594 1.673-.594s1.214.189 1.672.594c.486.377.729.917.729 1.645ZM103.645 15.482h-3.992V28.97h3.992V15.482ZM59.46 18.64c-.351-.082-.81-.19-1.295-.27-.486-.108-1.026-.135-1.592-.135-.243 0-.566.027-.917.053-.35.055-.62.081-.81.162v10.548h-4.1V15.915a24.744 24.744 0 0 1 2.59-.702c.998-.215 2.104-.323 3.345-.323.216 0 .486 0 .81.027.323.027.62.054.943.107.324.055.62.108.945.162.323.054.566.135.782.216l-.702 3.237ZM120.37 22.038c0 1.079-.162 2.077-.486 2.967a6.58 6.58 0 0 1-1.43 2.32 6.128 6.128 0 0 1-2.239 1.483c-.863.351-1.861.54-2.94.54a7.636 7.636 0 0 1-2.886-.54c-.863-.35-1.619-.836-2.239-1.483a6.788 6.788 0 0 1-1.457-2.32c-.35-.89-.512-1.888-.512-2.967 0-1.08.188-2.078.539-2.968a7 7 0 0 1 1.484-2.293 5.964 5.964 0 0 1 2.239-1.456 7.457 7.457 0 0 1 2.832-.54c1.052 0 1.996.162 2.887.54.863.35 1.618.836 2.238 1.456.621.62 1.106 1.403 1.457 2.293.324.89.513 1.889.513 2.968Zm-4.181 0c0-1.214-.243-2.158-.756-2.86-.512-.701-1.214-1.052-2.158-1.052s-1.645.35-2.158 1.052c-.512.675-.755 1.646-.755 2.86 0 1.213.27 2.158.755 2.859.513.728 1.241 1.052 2.158 1.052.944 0 1.646-.35 2.158-1.052.513-.701.756-1.645.756-2.86ZM60.97 22.173c0-1.241.189-2.293.593-3.21.378-.917.89-1.7 1.538-2.293a6.569 6.569 0 0 1 2.212-1.403 7.664 7.664 0 0 1 2.563-.458c2.05 0 3.668.593 4.855 1.807 1.187 1.214 1.78 2.967 1.78 5.287 0 .216 0 .486-.026.755-.027.27-.054.513-.054.729h-9.28c.081.809.486 1.43 1.187 1.915.701.486 1.619.701 2.806.701.755 0 1.483-.054 2.212-.189.728-.134 1.321-.296 1.753-.485l.54 3.183a3.978 3.978 0 0 1-.864.297c-.377.108-.782.189-1.214.27-.458.08-.944.161-1.456.188a14.69 14.69 0 0 1-1.538.081c-1.295 0-2.428-.188-3.399-.566-.944-.378-1.753-.863-2.4-1.51a6.161 6.161 0 0 1-1.403-2.267c-.243-.89-.405-1.807-.405-2.832Zm9.603-1.51c0-.325-.08-.648-.189-.972a3.148 3.148 0 0 0-.458-.836 2.254 2.254 0 0 0-.81-.594c-.323-.161-.728-.242-1.186-.242-.459 0-.864.08-1.16.216-.324.161-.594.35-.837.593a3.05 3.05 0 0 0-.512.863c-.108.324-.189.648-.27.971h5.422ZM84.735 21.633c0-1.268-.162-2.158-.512-2.67-.351-.54-.918-.783-1.754-.783-.27 0-.512 0-.809.027-.27.027-.54.054-.782.081v10.655h-4.074V15.59c.351-.08.756-.188 1.214-.27.459-.08.971-.188 1.484-.269.513-.08 1.052-.135 1.619-.189a16.24 16.24 0 0 1 1.618-.08c1.052 0 1.888.134 2.536.377.647.27 1.187.566 1.618.917a6.976 6.976 0 0 1 2.023-.944c.756-.216 1.457-.35 2.105-.35 1.16 0 2.103.161 2.832.458a4.328 4.328 0 0 1 1.753 1.295c.459.566.756 1.24.917 1.996.162.782.243 1.618.243 2.563v7.795h-4.1v-7.337c0-1.268-.162-2.158-.513-2.67-.323-.54-.917-.783-1.753-.783-.216 0-.513.054-.917.162-.405.108-.729.216-.971.378.135.404.216.836.242 1.268.027.458.054.917.054 1.43v7.525h-4.1v-7.229M43.679 10.142v5.314a9.964 9.964 0 0 0-1.349-.459 6.561 6.561 0 0 0-1.538-.162c-1.025 0-1.942.162-2.724.486-.81.324-1.484.81-2.023 1.43a6.994 6.994 0 0 0-1.268 2.293c-.297.89-.459 1.915-.459 3.02a8.44 8.44 0 0 0 .513 2.968c.35.89.836 1.646 1.483 2.266a6.464 6.464 0 0 0 2.347 1.43c.944.35 1.997.485 3.183.485.486 0 1.026-.027 1.565-.054.54-.054 1.08-.107 1.592-.188s1.025-.162 1.483-.243c.486-.081.89-.189 1.268-.297V9.01l-4.073 1.133Zm0 15.7c-.216.026-.459.08-.756.08-.323.027-.647.027-1.025.027-1.133 0-1.969-.377-2.535-1.106-.567-.728-.864-1.7-.864-2.913 0-2.509.972-3.777 2.914-3.777.405 0 .836.054 1.24.162.405.108.756.243.999.378v7.148h.027Z"/>
  <path fill="#2E3336" fill-rule="evenodd" d="M8.698 24.44c-1.168.543-3.439 1.759-3.223 3.076.296.81 1.22-.045 1.562-.386.736-.71 1.32-1.695 1.66-2.69Zm6.966-2.912c-.772 2.073-3.025 3.059-3.653 2.71-.315-.176.026-.83.035-1.281-.458.183-1.212.524-1.67.718 1.096.838 1.661 2.285 1.652 3.657 0 1.41-.565 2.709-1.625 3.602 1.886 2.865.925 5.334-1.67 7.259l-.161.11-.054-.192c-.386-1.364-.87-2.516-1.787-3.603-.457-.543-.978-1.04-1.49-1.538a31.389 31.389 0 0 1-1.93-2.026C.743 28.143-.271 23.288.061 19.539c.17-1.935.745-3.787 1.625-5.5a17.318 17.318 0 0 1 2.613-3.74c2.262-2.487 5.26-4.45 8.448-5.417 2.8-.856 6.006-1.004 8.672.406.431.23 1.078.635 1.437.94.225.211.449.432.664.644a.282.282 0 0 1 .072.074L36.062.414c1.033-.525 1.805-.525 2.12-.147.367.442-.144 1.363-.871 1.907l-10.684 7.96c.188.635-.126 1.556-.593 2.1 1.427.506.17 2.652-.458 3.417-1.787 2.174-5.063 3.879-7.981 5.122-.781.341-1.23.489-1.93.756Z" clip-rule="evenodd"/>
  <path fill="#31D3DB" fill-rule="evenodd" d="M25.442 14.02c.799-1.031.242-1.63-.315-1.05-1.095 1.152-2.756 1.548-4.255 1.3-2.191-.378-2.29-.719-1.921-1.05 2.585.967 5.593-.295 6.84-2.387.54-.792-1.265-1.427-2.334-2.91C18.35.846 2.36 7.02.834 19.39c-.467 3.722.548 7.84 3.044 10.742 1.867 2.174 3.896 3.077 5.045 6.495 2.236-1.972 1.885-4.201.252-6.154 2.792-1.493 2.388-5.371.422-6.55-.916 3.454-4.202 6.006-4.965 3.556-.494-2.497 3.51-4.155 9.93-6.651 5.368-2.064 8.834-3.768 10.88-6.808Z" clip-rule="evenodd"/>
  <path fill="#FFFFFE" fill-rule="evenodd" d="M25.442 14.021c.798-1.032.242-1.63-.315-1.05-.942.995-2.361 1.428-3.654 1.363-2.208-.165-3.968-.608-5.584-.433-3.178.332-6.275 2.396-7.936 4.137-2.801 2.948-5.89 9.064-2.775 10.253-.233-.148-.422-.415-.547-.811-.494-2.497 3.51-4.154 9.93-6.65 5.368-2.065 8.834-3.769 10.88-6.809Z" clip-rule="evenodd"/>
  <path fill="#31D3DB" fill-rule="evenodd" d="M11.696 18.848c1.652.83 1.32 3.74 1.078 4.469 3.133-.913 2.2-5.675 3.654-7.131-1.823-.055-5.235 1.824-4.732 2.662Z" clip-rule="evenodd"/>
  <path fill="#2E3336" fill-rule="evenodd" d="M16.993 10.225a.907.907 0 0 1 1.24.388.955.955 0 0 1-.378 1.262.897.897 0 0 1-1.23-.387.944.944 0 0 1 .368-1.263Z" clip-rule="evenodd"/>
  <path fill="#31D3DB" fill-rule="evenodd" d="M24.598 10.622 37.167 1.64c.35-.258.817-.81.628-1.078-.188-.267-.736-.12-1.203.092L23 8.19c-.44.94.45 2.92 1.599 2.432Z" clip-rule="evenodd"/>
  <path fill="#FFFFFE" fill-rule="evenodd" d="M23.493 8.844 36.628.912c.575-.35.799-.34 1.149-.378-.197-.23-.736-.092-1.185.12L23 8.189c-.332.71.1 2.027.827 2.405-.26-.58-.431-1.188-.333-1.75Z" clip-rule="evenodd"/>
  <path fill="#2FA69F" fill-rule="evenodd" d="M4.146 12.371c.43-.074.763.23.754.682 0 .451-.35.875-.781.95-.422.073-.754-.231-.745-.673 0-.452.35-.876.772-.959ZM6.696 9.488c.377-.064.673.203.664.6-.01.405-.314.773-.691.847-.377.064-.674-.203-.665-.599.01-.396.315-.774.692-.848ZM14.408 5.675c.386.018.619.35.52.736-.09.387-.476.682-.853.664-.377-.019-.61-.35-.52-.737.09-.387.475-.682.853-.663ZM16.769 5.278c.314.074.467.368.341.682-.126.304-.485.497-.79.433-.314-.074-.467-.369-.341-.682.125-.304.484-.497.79-.433ZM6.723 11.294c.278-.046.502.156.494.451a.645.645 0 0 1-.512.618c-.279.055-.494-.148-.494-.442.01-.295.233-.572.512-.627ZM2.745 14.684c.287-.055.521.156.512.46a.684.684 0 0 1-.53.654c-.296.046-.52-.156-.52-.46.009-.313.242-.608.538-.654ZM26.25 6.393l-.584.322c.045.875.745 1.935 1.248 2.11-.395-.617-.754-1.686-.664-2.432Zm3.133-1.74-.512.284c.063.783.692 1.723 1.006 1.778-.243-.377-.557-1.427-.494-2.063Zm3.097-1.724-.395.221c-.009.516.36 1.29.772 1.4-.197-.322-.44-.985-.377-1.62Zm2.981-1.649-.341.194c.027.34.413.976.628 1.077-.08-.248-.323-.755-.287-1.27Z" clip-rule="evenodd"/>
</svg>
