<svg xmlns="http://www.w3.org/2000/svg" fill="none" viewBox="0 0 20 20"><path fill="url(#a)" d="M12.483 1.704c-.8-.837-2.092-.387-2.431.59-.28.806-.644 1.772-.998 2.483-1.06 2.126-1.678 3.335-3.384 4.849-.25.21-.534.377-.841.49-1.13.446-2.19 1.616-1.913 3.005l.353 1.765a2.5 2.5 0 0 0 1.794 1.922l5.6 1.527a4.5 4.5 0 0 0 5.61-3.537l.685-3.761A2.998 2.998 0 0 0 14.006 7.5h-.883l.01-.052c.08-.41.176-.97.24-1.583.065-.61.1-1.285.049-1.913-.05-.616-.184-1.25-.504-1.73a3.996 3.996 0 0 0-.435-.518Z"/><defs><linearGradient id="a" x1="2.871" x2="2.871" y1="1.265" y2="18.493" gradientUnits="userSpaceOnUse"><stop stop-color="#56A2FD"/><stop offset="1" stop-color="#C94DCA"/></linearGradient></defs></svg>
