<svg width="140" height="113" viewBox="0 0 140 113" fill="none" xmlns="http://www.w3.org/2000/svg">
<path d="M68.4249 58.9059C63.4419 61.3555 49.864 58.5537 49.864 58.5537C50.0277 58.9311 50.224 59.2935 50.4505 59.6369C50.0089 59.5544 49.7539 59.5021 49.7539 59.5021C50.2193 60.5222 50.862 61.4518 51.6521 62.2475C53.6443 64.2734 56.0392 65.8588 58.6823 66.9014C61.2414 67.9597 63.9252 68.6864 66.6686 69.0639C67.7585 69.2293 68.8576 69.3269 69.9596 69.3562L69.7929 68.3929C69.8852 68.3979 69.9723 68.4028 70.0697 68.4079L68.4249 58.9059Z" fill="white"/>
<path d="M69.9596 69.3561C68.8576 69.3268 67.7585 69.2292 66.6686 69.0638C63.9252 68.6863 61.2414 67.9596 58.6823 66.9013C56.0392 65.8587 53.6442 64.2733 51.6521 62.2474C50.862 61.4517 50.2193 60.5221 49.7539 59.502C49.7539 59.502 63.3318 62.3038 68.3148 59.8542" fill="#97E8EC"/>
<path d="M70.0956 68.7722C70.0807 68.7732 70.0658 68.7734 70.0509 68.7728C68.9335 68.7441 67.8192 68.6446 66.7144 68.4751C63.9431 68.0948 61.2322 67.3598 58.6483 66.2883C55.9601 65.2281 53.5249 63.6146 51.5006 61.5524C50.6768 60.7231 50.0082 59.7529 49.5266 58.6879C49.5025 58.6267 49.4952 58.5602 49.5056 58.4953C49.5159 58.4304 49.5435 58.3695 49.5855 58.3189C49.6274 58.2687 49.6821 58.2307 49.7438 58.209C49.8055 58.1874 49.8719 58.1827 49.936 58.1956C50.0703 58.2234 63.4506 60.9438 68.2652 58.5775C68.3081 58.5565 68.3547 58.5441 68.4023 58.5412C68.4499 58.5383 68.4977 58.5449 68.5428 58.5605C68.5879 58.5761 68.6294 58.6006 68.665 58.6324C68.7006 58.6642 68.7296 58.7027 68.7502 58.7458C68.7926 58.8327 68.7989 58.9328 68.7677 59.0243C68.7365 59.1158 68.6704 59.1913 68.5837 59.2342C64.1615 61.4073 53.449 59.6048 50.5223 59.0545C50.9406 59.7761 51.4445 60.4447 52.0229 61.0457C53.9818 63.0366 56.3368 64.5941 58.9356 65.6174C61.4689 66.6653 64.126 67.3839 66.8421 67.7559C67.917 67.9193 69.001 68.0151 70.0879 68.0428C70.1803 68.0482 70.2673 68.0885 70.3312 68.1555C70.3951 68.2226 70.4311 68.3113 70.4321 68.4039C70.4331 68.4965 70.3989 68.5861 70.3365 68.6544C70.274 68.7228 70.1879 68.7649 70.0956 68.7723L70.0956 68.7722Z" fill="#383C42"/>
<path d="M125.464 81.4241C123.996 82.0322 122.723 83.0291 121.78 84.3074C120.732 85.5601 119.991 87.0402 119.616 88.6299C119.323 90.2205 118.763 91.7499 117.958 93.153C115.517 95.884 110.745 96.864 109.01 97.0303C107.603 97.1934 106.177 96.958 104.897 96.3511C103.616 95.7442 102.531 94.7901 101.766 93.5972C101.146 92.4092 100.844 91.0808 100.889 89.7413C101.297 87.0127 106.214 76.888 107.533 73.8594C107.591 73.7266 107.642 73.6075 107.686 73.5032L108.02 72.388C108.534 72.877 109.017 73.3081 109.44 73.6849C112.565 76.4689 116.563 78.7776 116.826 78.4408C116.9 78.3464 116.672 78.0543 116.552 77.8942C116.27 77.5159 116.023 77.1134 115.813 76.6914C116.948 77.3634 117.724 77.7514 117.724 77.7514C117.724 77.7514 115.581 74.9299 115.055 68.4568C114.826 65.6313 114.703 64.0134 114.503 62.739C114.256 60.6659 113.611 58.6601 112.603 56.8319L113.418 54.0677C113.992 50.5285 114.09 46.9284 113.708 43.3632C113.509 41.6777 113.252 40.4551 113.158 40.0203C111.794 33.7388 108.19 26.4601 104.446 22.7344C96.7067 15.0321 84.5367 12.2218 74.1658 19.8696C73.7958 20.1657 73.4517 20.4929 73.1374 20.8476C72.9757 20.9952 72.8125 21.1438 72.6537 21.2888C72.5834 21.3348 72.522 21.3931 72.4724 21.461L46.3713 1.63559C44.2176 0.0133433 42.6324 -0.445887 41.823 0.454873C41.7263 0.565166 41.6513 0.692737 41.602 0.830873C41.5117 0.891118 41.4289 0.962029 41.3555 1.04207C40.4073 2.09524 41.7582 4.38844 43.2257 5.98207L66.6585 31.7174C66.2271 33.3824 66.251 35.1328 66.7279 36.7854L66.7267 36.7851L66.7308 36.7943C66.8615 37.2625 67.0741 37.7039 67.3589 38.0979C67.3659 38.1099 67.3718 38.1229 67.3788 38.1349L67.3711 38.2284C67.3612 38.3012 67.3555 38.3745 67.3541 38.4479C67.2446 38.5112 67.1401 38.5826 67.0414 38.6616C66.8693 38.6765 66.636 38.9118 66.4439 39.3945C66.0603 40.2586 65.9533 41.2202 66.1376 42.1475C66.2921 43.9749 66.7119 45.7701 67.3836 47.4765C67.932 49.0881 68.3279 50.7475 68.5662 52.4331C68.6733 53.9578 68.9133 56.0683 69.2014 58.2308C69.2155 58.4324 69.2286 58.6228 69.2394 58.7898C69.5903 63.7243 70.5955 68.5904 72.2288 73.26C73.3456 77.0922 74.8166 80.8122 76.6228 84.3718C76.8668 84.8389 77.1263 85.3314 77.3956 85.8349C77.7286 86.6022 78.0514 87.3564 78.3484 88.0873C79.8288 91.4813 82.2216 94.3982 85.2608 96.5134C86.9653 98.0775 88.8607 99.42 90.9018 100.509C95.4566 102.522 100.464 103.291 105.413 102.736C108.463 102.448 111.442 101.644 114.223 100.359C115.569 99.7129 117.487 98.7826 117.593 98.9641C117.625 99.0174 117.469 99.2651 117.427 99.3224C116.614 100.495 116.108 101.854 115.958 103.274C115.808 104.694 116.018 106.129 116.568 107.446C117.18 108.88 118.226 110.086 119.559 110.895C121.178 111.798 123.436 111.845 125.965 111.322C127.679 110.878 129.245 109.99 130.507 108.748C130.968 108.349 131.4 107.919 131.801 107.461L131.752 107.434C131.944 107.266 132.117 107.078 132.268 106.873C125.868 103.517 123.806 100.28 123.806 100.28C123.463 99.5484 123.299 98.7456 123.328 97.938C123.356 97.1304 123.577 96.3411 123.97 95.6354C124.221 95.1943 124.505 94.7729 124.82 94.375C125.911 93.0208 127.146 91.7896 128.504 90.703C131.27 88.5379 134.649 87.3017 138.159 87.1707C138.825 87.1692 139.204 87.2246 139.267 87.0573C139.302 86.9643 139.235 86.7998 139.088 86.5889C139.468 86.5956 139.688 86.5937 139.735 86.4701C140.066 85.5946 131.759 78.6638 125.464 81.4241Z" fill="white"/>
<path d="M70.6279 65.1221L70.6292 65.1252L70.642 65.1829L70.6279 65.1221Z" fill="#97E8EC"/>
<path d="M72.3605 71.8776C71.6428 69.4238 71.0824 67.195 70.6421 65.1836C71.0955 67.1684 72.116 71.2091 73.457 75.2525C73.0261 74.0344 72.6575 72.8933 72.3605 71.8776Z" fill="#97E8EC"/>
<path d="M107.533 73.8594C106.213 76.888 101.297 87.0127 100.889 89.7413C100.843 91.0808 101.146 92.4092 101.766 93.5972C102.531 94.7901 103.616 95.7442 104.896 96.3511C106.177 96.958 107.602 97.1934 109.01 97.0303C110.83 96.8558 116 95.7904 118.306 92.7417C119.211 91.5461 119.555 90.0327 120.083 88.0427C120.372 86.5842 121.013 85.2184 121.951 84.0647C122.889 82.911 124.095 82.0045 125.464 81.4241C131.759 78.6638 140.066 85.5946 139.735 86.4699C139.671 86.6373 139.293 86.5819 138.627 86.5834C135.116 86.7144 131.737 87.9506 128.971 90.1157C127.019 91.6756 125.331 93.5392 123.97 95.6353C123.576 96.341 123.356 97.1303 123.328 97.9379C123.299 98.7456 123.463 99.5484 123.806 100.28C123.806 100.28 125.868 103.517 132.268 106.873C131.868 107.332 131.435 107.762 130.975 108.161C129.713 109.403 128.146 110.291 126.432 110.735C123.903 111.258 121.646 111.211 120.027 110.307C118.693 109.499 117.647 108.293 117.036 106.859C116.485 105.541 116.275 104.107 116.425 102.687C116.576 101.267 117.081 99.9082 117.895 98.7352C117.936 98.6778 118.092 98.4301 118.061 98.3768C117.954 98.1953 116.036 99.1256 114.69 99.7722C111.909 101.057 108.93 101.86 105.88 102.148C100.931 102.703 95.9238 101.935 91.3691 99.9214C85.5459 96.8226 82.1668 92.2015 79.6531 88.0998L70.6293 65.1255C69.599 60.7414 69.0613 56.256 69.0263 51.7527C68.8414 50.0146 68.5008 48.2967 68.0084 46.6196C67.2496 44.1332 64.7286 39.9443 67.3538 38.4479C67.372 38.1333 67.3538 38.4479 67.3793 38.1275C66.1978 36.6444 66.3927 33.2917 66.9015 31.9397L43.6928 5.39487C42.2254 3.80126 40.8746 1.50805 41.8229 0.454871C42.6322 -0.445889 44.2174 0.0133514 46.3712 1.63558L72.4722 21.4611C72.5217 21.3932 72.5832 21.3349 72.6535 21.2889C72.8123 21.1438 72.9754 20.9953 73.1372 20.8477C73.4515 20.493 73.7956 20.1658 74.1657 19.8697C84.5364 12.2219 96.7065 15.0322 104.446 22.7345C108.19 26.4602 111.794 33.7389 113.157 40.0204C113.252 40.4552 113.508 41.6777 113.708 43.3633C114.089 46.9285 113.992 50.5286 113.418 54.0678L112.294 57.8764C111.6 55.7245 110.085 53.9328 108.079 52.8896C107.414 52.5021 106.675 52.2604 105.91 52.1808C104.797 52.1855 103.724 52.591 102.886 53.323C102.048 54.0549 101.503 55.0642 101.349 56.1659C101.119 57.8104 101.31 59.4864 101.906 61.0364C103.187 64.9333 105.271 68.5184 108.023 71.5607C108.085 71.6252 108.148 71.6889 108.211 71.7528L107.685 73.5033C107.642 73.6076 107.591 73.7267 107.533 73.8594" fill="#97E8EC"/>
<path d="M79.9086 88.7505C78.8923 87.1531 77.9574 85.5053 77.1074 83.8135C77.8894 85.0974 78.7107 86.562 79.653 88.0996L79.9086 88.7505Z" fill="#97E8EC"/>
<path d="M77.0902 83.7843C75.5849 81.0747 74.3672 78.215 73.457 75.252C74.4921 78.18 75.7114 81.0395 77.1077 83.8135L77.0902 83.7843Z" fill="#97E8EC"/>
<path fill-rule="evenodd" clip-rule="evenodd" d="M90.9285 99.6803C90.9285 99.6803 76.9472 92.521 84.9393 75.6332C85.9119 73.5779 88.7358 67.3627 89.6952 64.7381C92.0623 58.2621 94.3237 41.2464 87.6947 43.1602C80.9117 45.1184 73.1047 45.928 67.1962 38.7173C66.7716 38.1991 64.8813 40.7 67.3833 47.4762C68.6653 50.9481 69.0926 56.538 69.2393 58.7894C70.0537 71.2848 75.3077 80.6051 78.3483 88.0869C81.6812 96.2877 90.9285 99.6803 90.9285 99.6803Z" fill="white"/>
<path d="M117.724 77.7518C117.724 77.7518 115.582 74.9302 115.055 68.4572C114.826 65.6316 114.702 64.0137 114.503 62.7393C113.738 57.8644 112.153 55.2066 109.289 53.7313C108.624 53.3437 107.885 53.1021 107.119 53.0225C106.007 53.0272 104.934 53.4327 104.096 54.1646C103.258 54.8965 102.712 55.9058 102.558 57.0076C102.328 58.652 102.52 60.328 103.116 61.878C104.366 65.6549 106.522 69.0682 109.395 71.8198C111.868 74.192 114.673 76.1904 117.724 77.7518Z" fill="#97E8EC"/>
<path d="M82.4799 44.5541C79.3174 44.7858 76.1422 44.3298 73.1728 43.2175C71.6625 42.7033 70.2777 41.8764 69.1087 40.7907C67.9397 39.705 67.0128 38.385 66.3885 36.9168C66.371 36.8723 66.3625 36.8249 66.3633 36.7771C66.3642 36.7293 66.3745 36.6822 66.3936 36.6384C66.4128 36.5947 66.4404 36.5551 66.4748 36.522C66.5093 36.4889 66.5499 36.463 66.5945 36.4456C66.639 36.4283 66.6865 36.4199 66.7342 36.421C66.782 36.4221 66.8291 36.4325 66.8728 36.4519C66.9165 36.4712 66.9559 36.4989 66.9889 36.5335C67.0218 36.5681 67.0476 36.6089 67.0648 36.6535C67.6542 38.0268 68.5264 39.2605 69.6244 40.2743C70.7224 41.2881 72.0217 42.0593 73.4376 42.5375C78.5701 44.5725 84.6136 44.069 87.6939 42.5621C87.7368 42.5411 87.7834 42.5288 87.8311 42.5259C87.8787 42.5231 87.9265 42.5297 87.9715 42.5455C88.0166 42.5612 88.0581 42.5857 88.0936 42.6176C88.1292 42.6495 88.158 42.6882 88.1785 42.7313C88.2207 42.8183 88.2268 42.9184 88.1954 43.0098C88.164 43.1013 88.0978 43.1766 88.0111 43.2194C86.2672 44.0068 84.3909 44.4595 82.4799 44.5541Z" fill="#383C42"/>
<path d="M116.784 78.8364C116.848 78.8327 116.91 78.8157 116.966 78.7864C117.022 78.7572 117.072 78.7163 117.111 78.6666C117.354 78.3557 117.069 77.9778 116.841 77.6739C114.921 75.1122 114.827 71.2023 114.792 69.7305C114.787 69.5019 114.782 69.3275 114.774 69.2193C114.731 68.6699 114.717 68.1186 114.732 67.5677C114.741 66.8497 114.752 65.9563 114.65 64.1255L114.628 63.6857C114.597 63.0564 114.562 62.343 114.502 61.9823C114.077 58.9246 112.641 56.0969 110.423 53.9496C110.387 53.9193 110.344 53.8965 110.298 53.8827C110.253 53.8689 110.205 53.8642 110.157 53.869C110.11 53.8738 110.064 53.8879 110.022 53.9105C109.98 53.9331 109.943 53.9638 109.913 54.0009C109.852 54.0761 109.823 54.1723 109.833 54.2686C109.843 54.3649 109.89 54.4535 109.964 54.5152C112.049 56.5474 113.394 59.2182 113.787 62.103C113.84 62.4211 113.875 63.142 113.904 63.7211L113.926 64.1655C114.026 65.9716 114.015 66.8511 114.007 67.5581C113.992 68.1316 114.006 68.7055 114.051 69.2775C114.059 69.3769 114.062 69.5371 114.068 69.7471C114.103 71.2348 114.195 75.1088 116.092 77.8755C113.784 76.6489 111.631 75.1499 109.68 73.4106C107.454 71.4281 103.731 68.11 102.334 62.5033C101.534 59.2902 101.537 57.8481 101.832 56.1661C101.841 56.1191 101.84 56.0708 101.83 56.0241C101.82 55.9773 101.801 55.933 101.774 55.8937C101.746 55.8543 101.712 55.8208 101.672 55.7949C101.631 55.7691 101.586 55.7514 101.539 55.743C101.492 55.7345 101.444 55.7355 101.397 55.7458C101.351 55.7561 101.306 55.7755 101.267 55.8029C101.228 55.8303 101.195 55.8652 101.169 55.9056C101.143 55.946 101.126 55.991 101.118 56.0381C100.805 57.8223 100.799 59.3392 101.631 62.6802C103.082 68.5068 106.912 71.919 109.2 73.9581C112.057 76.5041 115.943 78.8957 116.777 78.8368L116.784 78.8364ZM116.489 78.4437L116.484 78.444L116.489 78.4437Z" fill="#383C42"/>
<path fill-rule="evenodd" clip-rule="evenodd" d="M70.9395 24.6899L43.8839 2.51277C43.2031 1.89474 42.3674 1.47293 41.4658 1.29225C41.985 0.900688 43.1329 1.39336 44.0549 2.00091L72.2677 23.5504C72.7547 25.126 71.0903 27.9394 69.3421 28.4234C70.1246 27.343 71.0867 25.9381 71.0653 24.7543" fill="white"/>
<path fill-rule="evenodd" clip-rule="evenodd" d="M100.572 23.4234C100.427 23.3692 100.272 23.3501 100.119 23.3677C99.9658 23.3852 99.8189 23.439 99.6906 23.5245C99.5623 23.61 99.4561 23.7248 99.3809 23.8594C99.3056 23.994 99.2635 24.1446 99.2579 24.2987C99.2242 24.6431 99.3057 24.989 99.4895 25.2822C99.6734 25.5754 99.9493 25.7994 100.274 25.9192C100.418 25.9703 100.573 25.9871 100.725 25.9682C100.877 25.9493 101.022 25.8952 101.15 25.8103C101.277 25.7254 101.383 25.612 101.46 25.479C101.536 25.346 101.58 25.1971 101.588 25.0441C101.622 24.6996 101.54 24.3536 101.356 24.0604C101.173 23.7671 100.897 23.5431 100.572 23.4234Z" fill="#21AAAD"/>
<path fill-rule="evenodd" clip-rule="evenodd" d="M93.568 22.3203C93.4411 22.2962 93.3102 22.302 93.186 22.3372C93.0617 22.3725 92.9473 22.4363 92.852 22.5235C92.7567 22.6107 92.683 22.719 92.6369 22.8397C92.5907 22.9603 92.5733 23.0901 92.5861 23.2187C92.6064 23.5065 92.7201 23.7799 92.9099 23.9973C93.0997 24.2147 93.3553 24.3643 93.6378 24.4233C93.7647 24.4475 93.8956 24.4417 94.0199 24.4065C94.1442 24.3713 94.2586 24.3075 94.354 24.2203C94.4494 24.1331 94.5231 24.0249 94.5693 23.9042C94.6155 23.7835 94.6329 23.6537 94.6202 23.5251C94.5998 23.2371 94.486 22.9637 94.2961 22.7462C94.1062 22.5288 93.8506 22.3792 93.568 22.3203Z" fill="#21AAAD"/>
<path fill-rule="evenodd" clip-rule="evenodd" d="M110.979 43.1353C110.806 42.9849 110.599 42.8775 110.376 42.8218C110.154 42.7662 109.921 42.7639 109.697 42.8151C109.473 42.8662 109.264 42.9695 109.088 43.1164C108.911 43.2633 108.772 43.4498 108.681 43.6607C108.446 44.1237 108.375 44.6525 108.479 45.1611C108.583 45.6697 108.856 46.1281 109.254 46.4619C109.425 46.6094 109.629 46.7147 109.849 46.7692C110.069 46.8236 110.298 46.8258 110.519 46.7756C110.739 46.7253 110.945 46.624 111.12 46.4798C111.294 46.3355 111.432 46.1524 111.523 45.9451C111.755 45.4824 111.828 44.9559 111.729 44.4476C111.631 43.9394 111.367 43.4779 110.979 43.1353Z" fill="#21AAAD"/>
<path fill-rule="evenodd" clip-rule="evenodd" d="M108.874 34.4223C108.722 34.2902 108.54 34.1958 108.344 34.1468C108.149 34.0979 107.944 34.0957 107.747 34.1404C107.55 34.1851 107.367 34.2755 107.211 34.4043C107.056 34.533 106.933 34.6966 106.852 34.8816C106.65 35.2946 106.589 35.7626 106.679 36.2135C106.769 36.6644 107.005 37.073 107.351 37.3765C107.503 37.5086 107.685 37.603 107.881 37.6521C108.077 37.7011 108.281 37.7034 108.478 37.6588C108.675 37.6142 108.858 37.5239 109.014 37.3953C109.17 37.2666 109.293 37.1032 109.373 36.9182C109.572 36.5044 109.631 36.037 109.541 35.5868C109.451 35.1365 109.217 34.7278 108.874 34.4223" fill="#21AAAD"/>
<path fill-rule="evenodd" clip-rule="evenodd" d="M106.848 38.0414C106.733 37.9445 106.596 37.8758 106.45 37.8409C106.303 37.8059 106.151 37.8056 106.004 37.8401C105.858 37.8745 105.721 37.9426 105.605 38.0391C105.49 38.1356 105.398 38.2577 105.338 38.3958C105.187 38.6986 105.142 39.0437 105.211 39.3753C105.28 39.7068 105.459 40.0053 105.718 40.2225C105.831 40.3211 105.965 40.3918 106.11 40.4288C106.256 40.4657 106.407 40.468 106.553 40.4353C106.699 40.4026 106.836 40.3359 106.951 40.2407C107.067 40.1454 107.158 40.0242 107.218 39.887C107.364 39.5807 107.407 39.2353 107.34 38.9026C107.273 38.5699 107.101 38.2677 106.848 38.0414Z" fill="#21AAAD"/>
<path fill-rule="evenodd" clip-rule="evenodd" d="M111.34 49.3937C111.223 49.2912 111.083 49.2179 110.932 49.1797C110.782 49.1414 110.624 49.1394 110.472 49.1738C110.32 49.2081 110.178 49.2778 110.058 49.3773C109.939 49.4767 109.844 49.603 109.782 49.746C109.623 50.0627 109.573 50.4236 109.642 50.7715C109.71 51.1195 109.893 51.4347 110.16 51.6675C110.279 51.769 110.419 51.8418 110.571 51.88C110.722 51.9182 110.88 51.9208 111.033 51.8878C111.185 51.8547 111.328 51.7867 111.45 51.6892C111.572 51.5917 111.67 51.4674 111.736 51.3258C111.896 51.0059 111.943 50.6417 111.872 50.2915C111.8 49.9412 111.613 49.6251 111.34 49.3937Z" fill="#21AAAD"/>
<path opacity="0.6" fill-rule="evenodd" clip-rule="evenodd" d="M105.538 73.4343C105.506 73.3262 105.449 73.227 105.372 73.1449C105.295 73.0628 105.2 73.0001 105.094 72.9617C104.988 72.9234 104.874 72.9106 104.763 72.9243C104.651 72.938 104.544 72.9779 104.45 73.0407C104.231 73.1727 104.061 73.3742 103.969 73.6132C103.877 73.8523 103.868 74.1153 103.942 74.3604C103.975 74.4685 104.032 74.5675 104.11 74.6498C104.187 74.7321 104.282 74.7954 104.388 74.8348C104.494 74.8741 104.608 74.8885 104.72 74.8768C104.832 74.8652 104.941 74.8277 105.036 74.7673C105.257 74.6335 105.427 74.4293 105.517 74.1875C105.608 73.9458 105.615 73.6805 105.538 73.4343" fill="#21AAAD"/>
<path fill-rule="evenodd" clip-rule="evenodd" d="M45.1039 2.18067L45.8774 2.77205C45.5296 3.76245 44.8501 4.60219 43.9541 5.14905C44.5376 4.24929 44.9291 3.23873 45.1039 2.18066V2.18067ZM51.8687 7.24691L52.7645 7.92464C52.6065 9.17475 51.4307 10.9112 50.3769 11.0292C51.2428 9.9469 51.7626 8.6289 51.8687 7.24691ZM58.8948 12.5344L60.0547 13.4099C59.6277 15.2797 57.7533 17.3223 56.9604 17.3422C58.0078 15.9326 58.6741 14.2767 58.8948 12.5344H58.8948ZM66.0026 17.8784L67.3264 18.8694C66.9122 20.9683 64.8192 23.275 63.5206 23.5159C64.8994 21.9312 65.7649 19.9655 66.0026 17.8784L66.0026 17.8784Z" fill="#21AAAD"/>
<path d="M123.845 111.993C122.314 112.172 120.764 111.902 119.384 111.214C117.972 110.38 116.869 109.111 116.239 107.598C115.691 106.303 115.461 104.896 115.568 103.494C115.676 102.092 116.117 100.736 116.856 99.5401C116.172 99.8273 115.162 100.313 114.524 100.62L114.379 100.689C111.562 101.988 108.546 102.803 105.457 103.098C100.435 103.668 95.3513 102.886 90.7328 100.831C82.5313 96.4669 78.7827 89.2903 76.3022 84.5411C73.2942 78.5044 71.1564 72.0722 69.9526 65.4359C69.3091 61.9929 68.4219 55.6714 68.1974 52.3643C67.986 50.6587 67.6509 48.9706 67.1947 47.3136C67.0972 46.9947 66.9785 46.6377 66.8509 46.2547C65.9867 43.6583 64.691 39.7653 67.0049 38.234C65.8333 36.6012 65.811 33.289 66.247 31.8055L42.9586 6.22867C41.3821 4.51634 39.9446 2.06492 41.087 0.796168C42.0322 -0.255722 43.7259 0.126168 46.1208 1.93005L71.9795 21.5714L72.5422 21.0409C72.8295 20.7207 73.1447 20.4265 73.484 20.1619C84.5284 12.0172 96.8861 15.7495 104.234 23.0616C107.943 26.7532 111.648 34.0995 113.044 40.5298C113.27 41.5682 113.462 42.736 113.601 43.9074C113.985 47.5066 113.887 51.141 113.308 54.7142L113.024 55.6867C113.011 55.7325 112.989 55.7753 112.959 55.8124C112.929 55.8496 112.892 55.8805 112.85 55.9034C112.808 55.9262 112.762 55.9405 112.715 55.9455C112.667 55.9505 112.619 55.9461 112.573 55.9325C112.481 55.9042 112.403 55.8406 112.358 55.7554C112.312 55.6703 112.302 55.5705 112.329 55.4778L112.603 54.5503C113.163 51.0591 113.257 47.5089 112.881 43.993C112.745 42.8449 112.556 41.7008 112.336 40.6852C110.967 34.3778 107.345 27.1844 103.724 23.5812C96.5955 16.4871 84.6126 12.8609 73.9128 20.7517C73.608 20.9913 73.3248 21.2572 73.0665 21.5464L72.7699 21.8366L72.43 22.1467C72.4142 22.161 72.3972 22.174 72.3792 22.1854C72.3484 22.2064 72.3212 22.2324 72.299 22.2624C72.2709 22.3017 72.2352 22.3349 72.194 22.3601C72.1528 22.3853 72.107 22.4021 72.0593 22.4093C72.0115 22.4165 71.9628 22.4141 71.916 22.4021C71.8692 22.3902 71.8253 22.369 71.7869 22.3398L45.686 2.5145C44.5362 1.64821 42.4773 0.336948 41.6246 1.28739C40.9017 2.09011 42.0166 4.13171 43.4914 5.73339L66.9255 31.4705C66.971 31.5205 67.0018 31.5822 67.0145 31.6487C67.0272 31.7152 67.0213 31.7839 66.9975 31.8472C66.4951 33.1821 66.598 36.5627 67.6623 37.8986C67.7204 37.9717 67.7485 38.0641 67.7409 38.1571C67.7358 38.2228 67.7312 38.2779 67.7242 38.3256H67.7244L67.7159 38.4693C67.7124 38.5301 67.6939 38.589 67.6619 38.6408C67.63 38.6926 67.5856 38.7355 67.5328 38.7658C65.5072 39.9204 66.7296 43.5928 67.5385 46.023C67.668 46.4124 67.7888 46.7754 67.8876 47.0997C68.3603 48.8103 68.7057 50.5536 68.9209 52.3152C69.1436 55.5976 70.0256 61.8784 70.6653 65.3014C71.8553 71.8663 73.9691 78.2295 76.9436 84.2016C79.3825 88.8707 83.0681 95.9268 91.071 100.185C95.562 102.158 100.494 102.912 105.369 102.373C108.379 102.086 111.319 101.293 114.066 100.029L114.211 99.9599C117.4 98.4269 117.671 98.3782 117.906 98.7785C117.95 98.8545 118.069 99.0574 117.72 99.538C116.948 100.66 116.468 101.957 116.325 103.312C116.181 104.666 116.378 106.035 116.898 107.294C117.464 108.665 118.459 109.816 119.735 110.575C121.176 111.38 123.248 111.511 125.892 110.964C127.536 110.53 129.04 109.676 130.255 108.485C130.362 108.38 130.506 108.247 130.659 108.106C130.814 107.963 131.047 107.748 131.228 107.569C125.132 104.286 123.119 101.197 123.034 101.064C122.656 100.277 122.472 99.4111 122.498 98.5384C122.524 97.6657 122.759 96.812 123.183 96.049C124.567 93.9036 126.292 91.9982 128.289 90.4081C131.103 88.1713 134.566 86.9072 138.158 86.8052C138.31 86.8047 138.447 86.8072 138.569 86.8096C138.65 86.811 138.735 86.8124 138.812 86.8125C137.561 85.4027 136.043 84.256 134.345 83.4395C132.352 82.3979 128.506 80.8708 125.142 82.346C123.823 82.9044 122.661 83.778 121.759 84.8901C120.857 86.0022 120.241 87.3189 119.966 88.7244L119.838 89.2129C119.556 90.7564 118.975 92.2299 118.128 93.5503C115.86 96.5481 110.889 97.7593 108.578 97.9811C107.487 98.1673 106.369 98.1033 105.307 97.7942C104.245 97.485 103.267 96.9387 102.447 96.1964C101.627 95.4541 100.987 94.5353 100.574 93.5093C100.161 92.4832 99.9861 91.3768 100.063 90.2735C100.386 88.1189 103.379 81.6216 105.359 77.322C106.061 75.7969 106.616 74.5923 106.884 73.9488L107.046 73.3908C107.059 73.345 107.082 73.3022 107.112 73.265C107.141 73.2278 107.178 73.1968 107.22 73.174C107.262 73.1511 107.308 73.1368 107.356 73.1319C107.403 73.1269 107.451 73.1314 107.497 73.1451C107.589 73.1733 107.667 73.237 107.713 73.3221C107.759 73.4073 107.769 73.5071 107.741 73.5998L107.566 74.1948C107.28 74.8882 106.722 76.0982 106.017 77.6304C104.054 81.8921 101.087 88.3323 100.78 90.3831C100.749 91.6352 101.032 92.8751 101.605 93.9889C102.335 95.1239 103.369 96.0315 104.59 96.6085C105.81 97.1855 107.167 97.409 108.508 97.2535C110.711 97.0424 115.435 95.904 117.551 93.107C118.335 91.86 118.873 90.4743 119.136 89.0249L119.266 88.535C119.573 87.0255 120.242 85.613 121.215 84.4184C122.188 83.2239 123.436 82.2829 124.852 81.676C130.331 79.2732 136.833 83.8058 138.679 85.583C139.676 86.5426 139.698 86.9448 139.606 87.1876C139.467 87.5566 139.086 87.5499 138.557 87.5402C138.439 87.538 138.307 87.5354 138.161 87.5357C134.722 87.6402 131.41 88.8546 128.719 90.9974C126.81 92.5244 125.156 94.3468 123.822 96.3955C123.455 97.0493 123.249 97.7813 123.222 98.5307C123.194 99.2801 123.346 100.025 123.664 100.704C123.666 100.704 125.751 103.877 131.968 107.136C132.011 107.159 132.05 107.19 132.081 107.228C132.112 107.266 132.135 107.309 132.149 107.356C132.163 107.403 132.167 107.452 132.162 107.501C132.156 107.549 132.141 107.597 132.118 107.639C131.836 108.011 131.511 108.349 131.149 108.645C131.002 108.781 130.863 108.909 130.76 109.01C129.451 110.304 127.822 111.225 126.038 111.68C125.315 111.833 124.583 111.937 123.845 111.993Z" fill="#383C42"/>
<path d="M59.7429 102.233L44.8719 110.818L0.255859 85.0677V83.5927L15.1219 76.6367L59.7429 100.758V102.233Z" fill="#2A394A"/>
<path d="M59.7429 100.758L44.8719 109.343L0.255859 83.5931L15.1219 75.1621L59.7429 100.758Z" fill="#CFECF1"/>
<path d="M49.1845 100.364V77.2441L44.2305 80.1041V103.225L49.1845 100.364Z" fill="#48617E"/>
<path d="M44.2305 80.1041L39.2715 77.2441L39.2735 100.366L44.2305 103.225V80.1041Z" fill="#2A394A"/>
<path d="M44.2285 74.3818L49.1845 77.2438L44.2305 80.1038L39.2715 77.2438L44.2285 74.3818Z" fill="#577394"/>
<path d="M35.5585 92.7345V77.3965L30.6045 80.2575V95.5955L35.5585 92.7345Z" fill="#8D59A2"/>
<path d="M30.6045 80.2575L25.6455 77.3965L25.6475 92.7365L30.6045 95.5955V80.2575Z" fill="#67357C"/>
<path d="M30.6025 74.5352L35.5585 77.3962L30.6045 80.2572L25.6455 77.3962L30.6025 74.5352Z" fill="#A363BE"/>
<path d="M22.5546 84.9132V13.1182L17.6006 15.9782V87.7742L22.5546 84.9132Z" fill="#00BAC9"/>
<path d="M17.6006 15.9782L12.6416 13.1182L12.6436 84.9152L17.6006 87.7742V15.9782Z" fill="#196C79"/>
<path d="M17.5986 10.2559L22.5546 13.1179L17.6006 15.9779L12.6416 13.1179L17.5986 10.2559Z" fill="#279CAE"/>
<path d="M82.9361 36.2461C82.9475 36.2635 82.9567 36.2822 82.9635 36.3019C82.9723 36.3429 82.9788 36.3843 82.983 36.426C83.0311 36.8966 83.1402 37.3588 83.3074 37.8013C83.5941 38.5943 84.0545 39.3131 84.6551 39.9051C85.2556 40.497 85.981 40.9471 86.7781 41.2224C87.9913 41.6742 89.3253 41.6824 90.5439 41.2454C91.372 40.9767 92.1259 40.5185 92.7458 39.9073C93.3657 39.296 93.8343 38.5485 94.1145 37.7242C94.587 36.4604 94.5775 35.0669 94.0879 33.8096C93.8008 33.005 93.3337 32.2767 92.7223 31.6802C92.1108 31.0837 91.3711 30.6348 90.5597 30.3677C89.3442 29.949 88.0232 29.9517 86.8095 30.3754C85.5958 30.7991 84.56 31.6191 83.8691 32.7032C83.703 32.9701 83.5642 33.2538 83.4102 33.5284C83.3761 33.5818 83.3389 33.6333 83.2989 33.6825C82.9898 33.4919 82.6295 33.401 82.2669 33.4222C81.8975 33.4612 81.5564 33.6382 81.3119 33.9179C81.1231 34.1385 81.0047 34.4107 80.9721 34.6992C80.9395 34.9878 80.9941 35.2795 81.1288 35.5367C81.2593 35.7906 81.4637 35.9989 81.7151 36.1343C82.0927 36.3267 82.5298 36.3667 82.9361 36.2461Z" fill="#97E8EC"/>
<path d="M82.9362 36.2461C82.5298 36.3667 82.0927 36.3267 81.7151 36.1343C81.4637 35.9989 81.2593 35.7906 81.1288 35.5367C80.9941 35.2795 80.9395 34.9878 80.9721 34.6992C81.0047 34.4107 81.1231 34.1385 81.3119 33.9179C81.5564 33.6382 81.8975 33.4612 82.2669 33.4222C82.6295 33.401 82.9898 33.4919 83.2989 33.6825C83.3389 33.6333 83.3761 33.5818 83.4102 33.5284C83.5641 33.2538 83.703 32.9701 83.8691 32.7032C84.56 31.6191 85.5957 30.7991 86.8095 30.3754C88.0232 29.9517 89.3443 29.949 90.5597 30.3677C91.3711 30.6348 92.1108 31.0837 92.7223 31.6802C93.3337 32.2767 93.8008 33.005 94.0879 33.8096C94.5775 35.0669 94.587 36.4604 94.1145 37.7242C93.8343 38.5485 93.3657 39.296 92.7458 39.9073C92.126 40.5185 91.372 40.9767 90.5439 41.2454C89.3253 41.6824 87.9913 41.6742 86.778 41.2224C85.981 40.9471 85.2556 40.497 84.6551 39.9051C84.0546 39.3131 83.5941 38.5943 83.3074 37.8013C83.1402 37.3589 83.0311 36.8966 82.983 36.426C82.9788 36.3843 82.9723 36.3429 82.9635 36.3019C82.9567 36.2823 82.9475 36.2635 82.9362 36.2461Z" fill="#394046"/>
<path d="M86.1362 40.1878C87.0035 40.6942 88.0014 40.9321 89.0038 40.8715C90.0063 40.8109 90.9683 40.4545 91.7683 39.8473C92.5683 39.2401 93.1703 38.4095 93.4983 37.4603C93.8263 36.511 93.8656 35.4859 93.6112 34.5144C93.3567 33.5428 92.82 32.6685 92.0689 32.0019C91.3177 31.3353 90.3858 30.9064 89.3909 30.7693C88.396 30.6321 87.3828 30.793 86.4793 31.2315C85.5758 31.6701 84.8226 32.3666 84.3149 33.2331C83.6347 34.397 83.4445 35.7833 83.786 37.0874C84.1276 38.3915 84.9729 39.5066 86.1362 40.1878Z" fill="#394046"/>
<path d="M86.1359 40.1881C85.268 39.6801 84.5704 38.926 84.1315 38.0212C83.6926 37.1165 83.5321 36.1018 83.6703 35.1058C83.8086 34.1097 84.2394 33.1771 84.9081 32.4261C85.5769 31.6751 86.4535 31.1395 87.4269 30.8871C88.4004 30.6348 89.4268 30.6771 90.3762 31.0086C91.3256 31.3401 92.1552 31.946 92.7599 32.7494C93.3647 33.5528 93.7174 34.5177 93.7733 35.5217C93.8292 36.5258 93.5858 37.5238 93.074 38.3894C92.7373 38.9639 92.2906 39.4663 91.7594 39.8678C91.2281 40.2693 90.6229 40.562 89.9783 40.7291C89.3338 40.8962 88.6626 40.9344 88.0032 40.8415C87.3438 40.7487 86.7093 40.5266 86.1359 40.1881Z" fill="#70DCE1"/>
<path d="M81.5492 34.9988C81.5076 34.8163 81.5285 34.6252 81.6086 34.456C81.6886 34.2869 81.8232 34.1495 81.9906 34.066C82.1787 33.9684 82.3955 33.941 82.602 33.9887C82.8084 34.0364 82.9912 34.1562 83.1174 34.3264C83.1179 34.3641 83.1162 34.4019 83.1123 34.4394C83.063 34.7694 83.0103 35.099 82.9626 35.4293C82.9375 35.6034 82.9411 35.6039 82.7425 35.6598C82.7529 35.1878 82.7128 35.187 82.6326 35.0674C82.5691 34.972 82.4845 34.8925 82.3853 34.8349C82.1422 34.7003 81.8937 34.7573 81.5492 34.9988Z" fill="#32D2DA"/>
<path fill-rule="evenodd" clip-rule="evenodd" d="M88.4204 35.1032C88.2271 34.9941 88.014 34.9243 87.7936 34.8978C87.5731 34.8713 87.3496 34.8886 87.1359 34.9488C86.9221 35.0089 86.7224 35.1107 86.5481 35.2483C86.3739 35.3859 86.2285 35.5566 86.1204 35.7505C85.9071 36.1425 85.8553 36.6023 85.9758 37.0319C86.0963 37.4616 86.3796 37.8273 86.7656 38.0513C86.9577 38.1602 87.1695 38.2299 87.3887 38.2563C87.6079 38.2828 87.8301 38.2654 88.0426 38.2052C88.255 38.145 88.4533 38.0432 88.6261 37.9057C88.7988 37.7682 88.9425 37.5977 89.0488 37.4042C89.2689 37.0153 89.3264 36.5553 89.2087 36.1242C89.0909 35.6932 88.8076 35.3262 88.4204 35.1032" fill="#383C42"/>
<path fill-rule="evenodd" clip-rule="evenodd" d="M60.2034 79.4806C59.7344 79.4237 59.2922 79.2311 58.9311 78.9265C58.57 78.6219 58.3056 78.2185 58.1704 77.7658L51.1172 54.1588L55.6076 52.0898L62.8197 76.3718C62.9354 76.758 62.9531 77.1669 62.8713 77.5616C62.7895 77.9563 62.6107 78.3245 62.3512 78.6329C62.0916 78.9413 61.7594 79.1802 61.3844 79.3282C61.0095 79.4762 60.6036 79.5286 60.2034 79.4806" fill="#2A394A"/>
<path fill-rule="evenodd" clip-rule="evenodd" d="M60.8889 45.197C61.8747 37.0733 58.3125 27.3866 52.257 22.8323C49.5089 20.7656 46.9459 20.224 44.8587 20.9699L39.8765 23.0457L43.7714 23.5937L47.2763 25.3201L50.9932 29.381L53.7115 34.6219L55.6475 40.639L55.4871 47.9747L53.9689 52.1972L51.0654 55.8214L55.9623 53.7731C58.5149 52.7405 60.342 49.704 60.8889 45.1969" fill="#6C407E"/>
<path fill-rule="evenodd" clip-rule="evenodd" d="M40.9267 29.338C41.1124 27.1406 41.8529 25.0263 43.0789 23.1934C37.8603 23.894 36.8504 26.9305 36.3017 31.4526C35.3478 39.3134 39.0284 48.8014 44.6817 53.0533C45.8022 53.9702 47.1428 54.5784 48.5708 54.8177C49.4664 54.9264 51.5763 55.1824 52.7075 53.7083C51.6614 53.3174 50.68 52.7714 49.7965 52.0884C43.613 47.4376 39.9409 37.4617 40.9267 29.338" fill="#6C407E"/>
<path fill-rule="evenodd" clip-rule="evenodd" d="M51.0442 54.3891C50.282 54.7786 49.4198 54.9282 48.571 54.8181C47.143 54.5788 45.8022 53.9706 44.6816 53.0536C39.0286 48.8017 35.3477 39.3137 36.3017 31.4529C36.8504 26.9309 38.728 24.1974 41.4164 23.8745C41.7994 23.8289 42.1865 23.8298 42.5692 23.8773C44.0989 24.1355 45.5347 24.7886 46.7344 25.7722C52.3332 29.9827 55.834 39.1035 54.8774 46.987C54.4177 50.7751 53.0179 53.3855 51.0442 54.3891H51.0442ZM47.4775 24.8349C41.2932 20.1839 36.0404 23.2414 35.0546 31.3645C34.0689 39.4882 37.7402 49.4639 43.9244 54.1148C49.9794 58.6691 55.1236 55.3226 56.1094 47.1994C57.0951 39.0758 53.5325 29.3885 47.4775 24.8349Z" fill="#8D59A2"/>
</svg>
